<?xml version="1.0" encoding="UTF-8"?>
<svg version="1.1" xmlns="http://www.w3.org/2000/svg" width="219" height="193">
<path d="M0 0 C72.27 0 144.54 0 219 0 C219 63.69 219 127.38 219 193 C146.73 193 74.46 193 0 193 C0 129.31 0 65.62 0 0 Z " fill="#E3E0D7" transform="translate(0,0)"/>
<path d="M0 0 C6.58963612 3.80377369 11.87990686 9.38673435 14.1875 16.7421875 C15.85833304 25.36487945 14.98378201 33.31746449 10.625 41 C8.98828125 42.77734375 8.98828125 42.77734375 7.625 44 C8.388125 44.2475 9.15125 44.495 9.9375 44.75 C12.91107889 46.13305995 13.94623929 47.23004483 15.625 50 C15.955 50.99 16.285 51.98 16.625 53 C17.64980469 52.38511719 18.67460937 51.77023438 19.73046875 51.13671875 C27.85546875 46.26171875 27.85546875 46.26171875 29.82543945 45.09008789 C31.34115323 44.17194082 32.82689507 43.20457673 34.3046875 42.2265625 C39.20548942 39.6359029 44.9160354 40.57275885 50.125 41.875 C52.625 43 52.625 43 54.625 45 C54.89915466 47.00462341 54.89915466 47.00462341 54.93139648 49.49389648 C54.94738388 50.42503769 54.96337128 51.35617889 54.97984314 52.3155365 C54.98520584 53.32387039 54.99056854 54.33220428 54.99609375 55.37109375 C55.00512222 56.40436295 55.0141507 57.43763214 55.02345276 58.50221252 C55.03797819 60.69032889 55.04684766 62.87848892 55.05053711 65.06665039 C55.06244082 68.42082555 55.11161166 71.77316618 55.16210938 75.12695312 C55.17157216 77.24999099 55.17880788 79.37304019 55.18359375 81.49609375 C55.20312607 82.50240341 55.22265839 83.50871307 55.24278259 84.54551697 C55.22598603 87.12755427 55.17263904 89.47668964 54.625 92 C52.25439453 94.09814453 52.25439453 94.09814453 49.625 95 C48.32369141 95.46212891 48.32369141 95.46212891 46.99609375 95.93359375 C35.56557944 97.8970243 27.60468701 91.40376096 18.48168945 85.23095703 C16.64646904 83.96010919 16.64646904 83.96010919 14.625 83 C14.7075 84.2375 14.79 85.475 14.875 86.75 C15.068811 89.65716493 14.77055874 90.77701639 13.15625 93.25 C9.45100677 95.81164964 6.26379488 95.43923494 1.875 95.25 C1.08222656 95.23195313 0.28945312 95.21390625 -0.52734375 95.1953125 C-2.47708348 95.14833082 -4.42619878 95.07659044 -6.375 95 C-6.705 96.98 -7.035 98.96 -7.375 101 C-8.695 101.33 -10.015 101.66 -11.375 102 C-9.81518123 104.85563904 -8.25171974 107.7092695 -6.6875 110.5625 C-6.20434326 111.44550781 -5.72118652 112.32851562 -5.22338867 113.23828125 C-2.44852453 118.29134811 0.36894381 123.31522474 3.25 128.30859375 C3.84337158 129.34105225 4.43674316 130.37351074 5.0480957 131.43725586 C6.21136689 133.45652208 7.38163095 135.47177818 8.55932617 137.48266602 C9.09017822 138.40619873 9.62103027 139.32973145 10.16796875 140.28125 C10.64258545 141.09658203 11.11720215 141.91191406 11.60620117 142.75195312 C12.625 145 12.625 145 12.625 149 C9.89453125 149.34936523 9.89453125 149.34936523 6.625 149 C4.38671875 146.66430664 4.38671875 146.66430664 2.3125 143.41015625 C1.93569092 142.8322081 1.55888184 142.25425995 1.1706543 141.65879822 C-0.03137582 139.80546613 -1.20326823 137.93510096 -2.375 136.0625 C-3.1621165 134.83663893 -3.95116165 133.61201396 -4.7421875 132.38867188 C-6.26808363 130.02346117 -7.78325475 127.65197267 -9.2890625 125.27392578 C-11.92262429 121.14049138 -14.63137699 117.06096553 -17.375 113 C-17.22877197 113.93271729 -17.08254395 114.86543457 -16.93188477 115.82641602 C-16.3854481 119.31333657 -15.83943487 122.8003229 -15.29370117 126.28735352 C-15.05819173 127.79161154 -14.82251746 129.29584377 -14.58666992 130.80004883 C-14.24613969 132.97209896 -13.90621807 135.14424363 -13.56640625 137.31640625 C-13.36217041 138.62037354 -13.15793457 139.92434082 -12.94750977 141.26782227 C-12.75858154 142.49944092 -12.56965332 143.73105957 -12.375 145 C-12.16480225 146.29284912 -11.95460449 147.58569824 -11.73803711 148.91772461 C-11.61823486 149.93487549 -11.49843262 150.95202637 -11.375 152 C-11.705 152.33 -12.035 152.66 -12.375 153 C-14.685 152.67 -16.995 152.34 -19.375 152 C-22.015 141.11 -24.655 130.22 -27.375 119 C-29.73808351 125.08719748 -29.73808351 125.08719748 -31.47265625 131.2109375 C-31.63443359 131.89800781 -31.79621094 132.58507812 -31.96289062 133.29296875 C-32.28456876 134.70411647 -32.60483751 136.11558608 -32.92382812 137.52734375 C-34.16774068 142.79274068 -34.16774068 142.79274068 -36.375 145 C-38.9375 145.1875 -38.9375 145.1875 -41.375 145 C-41.705 144.67 -42.035 144.34 -42.375 144 C-41.74615113 136.42993326 -40.48729974 128.93878311 -39.3125 121.4375 C-39.12623047 120.23802734 -38.93996094 119.03855469 -38.74804688 117.80273438 C-38.29208602 114.86821707 -37.8343631 111.93398631 -37.375 109 C-37.86226562 109.82757813 -38.34953125 110.65515625 -38.8515625 111.5078125 C-43.70340779 119.69552059 -48.7137829 127.77620716 -53.8125 135.8125 C-54.42754395 136.78525879 -55.04258789 137.75801758 -55.67626953 138.76025391 C-56.25618652 139.67081543 -56.83610352 140.58137695 -57.43359375 141.51953125 C-57.95236084 142.33526611 -58.47112793 143.15100098 -59.00561523 143.99145508 C-60.375 146 -60.375 146 -62.375 148 C-65.5 148.125 -65.5 148.125 -68.375 148 C-67.81835114 143.22415982 -66.43750706 139.70264565 -64.20703125 135.45703125 C-63.88973557 134.84792404 -63.57243988 134.23881683 -63.24552917 133.61125183 C-62.23393846 131.67415566 -61.2108749 129.74339147 -60.1875 127.8125 C-59.51943858 126.5361963 -58.85211467 125.25950628 -58.18554688 123.98242188 C-54.32868988 116.61124715 -50.38667346 109.28820374 -46.375 102 C-46.99375 101.896875 -47.6125 101.79375 -48.25 101.6875 C-50.375 101 -50.375 101 -52.375 98 C-52.375 96.68 -52.375 95.36 -52.375 94 C-53.02573486 94.01571045 -53.67646973 94.0314209 -54.34692383 94.04760742 C-57.29369424 94.10994649 -60.24032598 94.14898684 -63.1875 94.1875 C-64.21166016 94.21263672 -65.23582031 94.23777344 -66.29101562 94.26367188 C-67.27392578 94.27333984 -68.25683594 94.28300781 -69.26953125 94.29296875 C-70.17550049 94.3086792 -71.08146973 94.32438965 -72.01489258 94.34057617 C-74.89783168 93.92455258 -75.58084437 93.24248078 -77.375 91 C-77.67341479 88.02260864 -77.79527068 85.25881789 -77.7734375 82.28125 C-77.77630768 81.42696411 -77.77917786 80.57267822 -77.78213501 79.69250488 C-77.78417581 77.88695615 -77.77864483 76.08138531 -77.76611328 74.27587891 C-77.75005944 71.51023988 -77.76596099 68.74606225 -77.78515625 65.98046875 C-77.78317382 64.22655927 -77.77933015 62.4726507 -77.7734375 60.71875 C-77.77951019 59.89056763 -77.78558289 59.06238525 -77.7918396 58.20910645 C-77.7210065 52.43473766 -77.7210065 52.43473766 -76.03823853 50.32043457 C-74.375 49 -74.375 49 -71.375 48 C-71.77332031 47.5875 -72.17164063 47.175 -72.58203125 46.75 C-78.41996531 40.38650983 -81.09427688 34.32195517 -80.78515625 25.5859375 C-79.62606763 18.2781597 -75.83438362 12.6952147 -70.12109375 8.15625 C-64.09061673 4.16291399 -58.48373671 4.33739048 -51.375 5 C-44.95458856 6.62043126 -40.15004378 9.47627431 -35.375 14 C-35.148125 13.278125 -34.92125 12.55625 -34.6875 11.8125 C-32.08948773 6.24533085 -26.63100142 1.55794904 -21.10546875 -1.0859375 C-14.24953749 -3.38105612 -6.56542782 -2.98611342 0 0 Z " fill="#194440" transform="translate(130.375,20)"/>
<path d="M0 0 C0 0.66 0 1.32 0 2 C-0.66 2 -1.32 2 -2 2 C-2.04125 2.5775 -2.0825 3.155 -2.125 3.75 C-3 6 -3 6 -5.75 7.6875 C-10.14613434 10.81551866 -12.29831155 13.88045219 -14 19 C-14.93144861 26.087109 -15.05149512 33.12065704 -11.2734375 39.390625 C-9.12838892 42.10154529 -6.80005968 43.95828982 -4 46 C-3.21625 46.598125 -2.4325 47.19625 -1.625 47.8125 C-1.08875 48.204375 -0.5525 48.59625 0 49 C-0.66 49 -1.32 49 -2 49 C-1.67 49.66 -1.34 50.32 -1 51 C2.27555608 51.47001033 2.27555608 51.47001033 6.0625 51.625 C7.35285156 51.69976562 8.64320312 51.77453125 9.97265625 51.8515625 C10.97167969 51.90054688 11.97070312 51.94953125 13 52 C13 52.33 13 52.66 13 53 C11.91458168 53.0154612 11.91458168 53.0154612 10.80723572 53.03123474 C3.96633638 53.12947505 -2.87448645 53.23202555 -9.71524906 53.33933926 C-13.23160424 53.39435174 -16.74796799 53.44773524 -20.2644043 53.49731445 C-24.31307375 53.55447082 -28.36160083 53.6188589 -32.41015625 53.68359375 C-33.66458023 53.70030624 -34.91900421 53.71701874 -36.21144104 53.73423767 C-45.6148172 53.15877048 -45.6148172 53.15877048 -54 56 C-54.0885067 58.59334148 -54.1153317 61.16062579 -54.09765625 63.75390625 C-54.09664917 64.44093628 -54.09564209 65.12796631 -54.09460449 65.83581543 C-54.08935776 68.41139384 -54.07539659 70.98694853 -54.0625 73.5625 C-54.041875 79.316875 -54.02125 85.07125 -54 91 C-20.835 91.495 -20.835 91.495 13 92 C13 92.99 13 93.98 13 95 C18.61 95 24.22 95 30 95 C30 95.33 30 95.66 30 96 C24.39 96 18.78 96 13 96 C12.67 97.98 12.34 99.96 12 102 C10.68 102.33 9.36 102.66 8 103 C9.55981877 105.85563904 11.12328026 108.7092695 12.6875 111.5625 C13.17065674 112.44550781 13.65381348 113.32851562 14.15161133 114.23828125 C16.92647547 119.29134811 19.74394381 124.31522474 22.625 129.30859375 C23.21837158 130.34105225 23.81174316 131.37351074 24.4230957 132.43725586 C25.58636689 134.45652208 26.75663095 136.47177818 27.93432617 138.48266602 C28.46517822 139.40619873 28.99603027 140.32973145 29.54296875 141.28125 C30.01758545 142.09658203 30.49220215 142.91191406 30.98120117 143.75195312 C32 146 32 146 32 150 C29.26953125 150.34936523 29.26953125 150.34936523 26 150 C23.76171875 147.66430664 23.76171875 147.66430664 21.6875 144.41015625 C21.31069092 143.8322081 20.93388184 143.25425995 20.5456543 142.65879822 C19.34362418 140.80546613 18.17173177 138.93510096 17 137.0625 C16.2128835 135.83663893 15.42383835 134.61201396 14.6328125 133.38867188 C13.10691637 131.02346117 11.59174525 128.65197267 10.0859375 126.27392578 C7.45237571 122.14049138 4.74362301 118.06096553 2 114 C2.14622803 114.93271729 2.29245605 115.86543457 2.44311523 116.82641602 C2.9895519 120.31333657 3.53556513 123.8003229 4.08129883 127.28735352 C4.31680827 128.79161154 4.55248254 130.29584377 4.78833008 131.80004883 C5.12886031 133.97209896 5.46878193 136.14424363 5.80859375 138.31640625 C6.01282959 139.62037354 6.21706543 140.92434082 6.42749023 142.26782227 C6.61641846 143.49944092 6.80534668 144.73105957 7 146 C7.21019775 147.29284912 7.42039551 148.58569824 7.63696289 149.91772461 C7.75676514 150.93487549 7.87656738 151.95202637 8 153 C7.67 153.33 7.34 153.66 7 154 C4.69 153.67 2.38 153.34 0 153 C-2.64 142.11 -5.28 131.22 -8 120 C-10.36308351 126.08719748 -10.36308351 126.08719748 -12.09765625 132.2109375 C-12.25943359 132.89800781 -12.42121094 133.58507812 -12.58789062 134.29296875 C-12.90956876 135.70411647 -13.22983751 137.11558608 -13.54882812 138.52734375 C-14.79274068 143.79274068 -14.79274068 143.79274068 -17 146 C-19.5625 146.1875 -19.5625 146.1875 -22 146 C-22.33 145.67 -22.66 145.34 -23 145 C-22.37115113 137.42993326 -21.11229974 129.93878311 -19.9375 122.4375 C-19.75123047 121.23802734 -19.56496094 120.03855469 -19.37304688 118.80273438 C-18.91708602 115.86821707 -18.4593631 112.93398631 -18 110 C-18.48726562 110.82757813 -18.97453125 111.65515625 -19.4765625 112.5078125 C-24.32840779 120.69552059 -29.3387829 128.77620716 -34.4375 136.8125 C-35.05254395 137.78525879 -35.66758789 138.75801758 -36.30126953 139.76025391 C-36.88118652 140.67081543 -37.46110352 141.58137695 -38.05859375 142.51953125 C-38.57736084 143.33526611 -39.09612793 144.15100098 -39.63061523 144.99145508 C-41 147 -41 147 -43 149 C-46.125 149.125 -46.125 149.125 -49 149 C-48.44335114 144.22415982 -47.06250706 140.70264565 -44.83203125 136.45703125 C-44.51473557 135.84792404 -44.19743988 135.23881683 -43.87052917 134.61125183 C-42.85893846 132.67415566 -41.8358749 130.74339147 -40.8125 128.8125 C-40.14443858 127.5361963 -39.47711467 126.25950628 -38.81054688 124.98242188 C-34.95368988 117.61124715 -31.01167346 110.28820374 -27 103 C-27.61875 102.896875 -28.2375 102.79375 -28.875 102.6875 C-31 102 -31 102 -33 99 C-33 97.68 -33 96.36 -33 95 C-33.65073486 95.01571045 -34.30146973 95.0314209 -34.97192383 95.04760742 C-37.91869424 95.10994649 -40.86532598 95.14898684 -43.8125 95.1875 C-44.83666016 95.21263672 -45.86082031 95.23777344 -46.91601562 95.26367188 C-47.89892578 95.27333984 -48.88183594 95.28300781 -49.89453125 95.29296875 C-50.80050049 95.3086792 -51.70646973 95.32438965 -52.63989258 95.34057617 C-55.52283168 94.92455258 -56.20584437 94.24248078 -58 92 C-58.29841479 89.02260864 -58.42027068 86.25881789 -58.3984375 83.28125 C-58.40130768 82.42696411 -58.40417786 81.57267822 -58.40713501 80.69250488 C-58.40917581 78.88695615 -58.40364483 77.08138531 -58.39111328 75.27587891 C-58.37505944 72.51023988 -58.39096099 69.74606225 -58.41015625 66.98046875 C-58.40817382 65.22655927 -58.40433015 63.4726507 -58.3984375 61.71875 C-58.40451019 60.89056763 -58.41058289 60.06238525 -58.4168396 59.20910645 C-58.3460065 53.43473766 -58.3460065 53.43473766 -56.66323853 51.32043457 C-55 50 -55 50 -52 49 C-52.39832031 48.5875 -52.79664063 48.175 -53.20703125 47.75 C-59.04496531 41.38650983 -61.71927688 35.32195517 -61.41015625 26.5859375 C-60.25106763 19.2781597 -56.45938362 13.6952147 -50.74609375 9.15625 C-44.71561673 5.16291399 -39.10873671 5.33739048 -32 6 C-25.57958856 7.62043126 -20.77504378 10.47627431 -16 15 C-15.773125 14.278125 -15.54625 13.55625 -15.3125 12.8125 C-12.92784723 7.70252978 -6.12292369 0 0 0 Z " fill="#184340" transform="translate(111,19)"/>
<path d="M0 0 C15.18 0 30.36 0 46 0 C46 0.66 46 1.32 46 2 C51.61 2 57.22 2 63 2 C63 2.33 63 2.66 63 3 C57.39 3 51.78 3 46 3 C45.67 4.98 45.34 6.96 45 9 C43.68 9.33 42.36 9.66 41 10 C42.55981877 12.85563904 44.12328026 15.7092695 45.6875 18.5625 C46.17065674 19.44550781 46.65381348 20.32851562 47.15161133 21.23828125 C49.92647547 26.29134811 52.74394381 31.31522474 55.625 36.30859375 C56.51505737 37.85728149 56.51505737 37.85728149 57.4230957 39.43725586 C58.58636689 41.45652208 59.75663095 43.47177818 60.93432617 45.48266602 C61.46517822 46.40619873 61.99603027 47.32973145 62.54296875 48.28125 C63.01758545 49.09658203 63.49220215 49.91191406 63.98120117 50.75195312 C65 53 65 53 65 57 C62.26953125 57.34936523 62.26953125 57.34936523 59 57 C56.76171875 54.66430664 56.76171875 54.66430664 54.6875 51.41015625 C54.31069092 50.8322081 53.93388184 50.25425995 53.5456543 49.65879822 C52.34362418 47.80546613 51.17173177 45.93510096 50 44.0625 C49.2128835 42.83663893 48.42383835 41.61201396 47.6328125 40.38867188 C46.10691637 38.02346117 44.59174525 35.65197267 43.0859375 33.27392578 C40.45237571 29.14049138 37.74362301 25.06096553 35 21 C35.14622803 21.93271729 35.29245605 22.86543457 35.44311523 23.82641602 C35.9895519 27.31333657 36.53556513 30.8003229 37.08129883 34.28735352 C37.31680827 35.79161154 37.55248254 37.29584377 37.78833008 38.80004883 C38.12886031 40.97209896 38.46878193 43.14424363 38.80859375 45.31640625 C39.01282959 46.62037354 39.21706543 47.92434082 39.42749023 49.26782227 C39.61641846 50.49944092 39.80534668 51.73105957 40 53 C40.31529663 54.93927368 40.31529663 54.93927368 40.63696289 56.91772461 C40.75676514 57.93487549 40.87656738 58.95202637 41 60 C40.67 60.33 40.34 60.66 40 61 C37.69 60.67 35.38 60.34 33 60 C30.36 49.11 27.72 38.22 25 27 C22.63691649 33.08719748 22.63691649 33.08719748 20.90234375 39.2109375 C20.74056641 39.89800781 20.57878906 40.58507812 20.41210938 41.29296875 C20.09043124 42.70411647 19.77016249 44.11558608 19.45117188 45.52734375 C18.20725932 50.79274068 18.20725932 50.79274068 16 53 C13.4375 53.1875 13.4375 53.1875 11 53 C10.505 52.505 10.505 52.505 10 52 C10.62884887 44.42993326 11.88770026 36.93878311 13.0625 29.4375 C13.24876953 28.23802734 13.43503906 27.03855469 13.62695312 25.80273438 C14.08291398 22.86821707 14.5406369 19.93398631 15 17 C14.26910156 18.24136719 14.26910156 18.24136719 13.5234375 19.5078125 C8.67159221 27.69552059 3.6612171 35.77620716 -1.4375 43.8125 C-2.05254395 44.78525879 -2.66758789 45.75801758 -3.30126953 46.76025391 C-3.88118652 47.67081543 -4.46110352 48.58137695 -5.05859375 49.51953125 C-5.57736084 50.33526611 -6.09612793 51.15100098 -6.63061523 51.99145508 C-8 54 -8 54 -10 56 C-13.125 56.125 -13.125 56.125 -16 56 C-15.44225683 51.24530664 -14.07912776 47.72450204 -11.8671875 43.4921875 C-11.55226349 42.88545197 -11.23733948 42.27871643 -10.91287231 41.65359497 C-10.24594174 40.37249595 -9.5750359 39.09345944 -8.90039062 37.81640625 C-7.89107445 35.90543429 -6.89367795 33.98864588 -5.8984375 32.0703125 C5.1787481 10.8212519 5.1787481 10.8212519 8 8 C6.68 7.34 5.36 6.68 4 6 C4 5.01 4 4.02 4 3 C5.32 2.67 6.64 2.34 8 2 C5.36 1.67 2.72 1.34 0 1 C0 0.67 0 0.34 0 0 Z " fill="#194543" transform="translate(78,112)"/>
<path d="M0 0 C1.24849731 -0.00688843 1.24849731 -0.00688843 2.5222168 -0.01391602 C8.12612076 0.00112076 8.12612076 0.00112076 9.25 1.125 C9.25 10.035 9.25 18.945 9.25 28.125 C-9.56 28.125 -28.37 28.125 -47.75 28.125 C-47.75 19.545 -47.75 10.965 -47.75 2.125 C-43.16236388 1.46962341 -39.00230874 0.96821966 -34.42578125 0.80859375 C-32.6483252 0.74551025 -32.6483252 0.74551025 -30.83496094 0.68115234 C-28.96759277 0.62241943 -28.96759277 0.62241943 -27.0625 0.5625 C-25.7827832 0.5207666 -24.50306641 0.4790332 -23.18457031 0.43603516 C-15.45667283 0.1989534 -7.73163074 0.02375862 0 0 Z " fill="#D4A74C" transform="translate(109.75,76.875)"/>
<path d="M0 0 C5.86849266 3.35664264 10.30797031 8.00723907 12.7578125 14.36328125 C14.36111504 20.44733659 14.5600944 26.57114699 11.8984375 32.3671875 C8.71263768 37.79410202 4.78449378 41.71901196 -1.08984375 44.1640625 C-6.57741849 44.82134861 -11.49043257 44.92014779 -16.52734375 42.5390625 C-21.75168201 37.69699289 -25.56968739 33.26029382 -26.49609375 25.96484375 C-26.72397479 17.48576989 -25.7386125 11.67618019 -20.08984375 5.1640625 C-14.42913395 0.00493458 -7.47716881 -2.99086752 0 0 Z " fill="#D8A43E" transform="translate(122.08984375,22.8359375)"/>
<path d="M0 0 C4.50383546 3.64139888 8.49354638 7.59918552 9.9375 13.375 C10.69581621 21.3102375 9.46799011 26.39851554 5.1875 33.125 C1.21412511 37.09837489 -3.09973281 38.5334461 -8.625 38.8125 C-13.0891712 38.64547319 -15.63797702 37.32168256 -19.0625 34.375 C-24.34607118 28.65113122 -25.47579557 23.63709363 -25.3125 16.0234375 C-24.7416732 9.97624113 -21.25542898 5.56792898 -17.0625 1.375 C-11.43682941 -1.72841745 -5.8753771 -3.11754703 0 0 Z " fill="#CD9938" transform="translate(78.0625,29.625)"/>
<path d="M0 0 C0.049467 5.48094366 0.0857514 10.96175713 0.10986328 16.44287109 C0.11991593 18.30715194 0.13356005 20.17141703 0.15087891 22.03564453 C0.17515953 24.71651091 0.18649047 27.39716866 0.1953125 30.078125 C0.20563507 30.91055725 0.21595764 31.7429895 0.22659302 32.60064697 C0.22797609 39.74669236 0.22797609 39.74669236 -2 43 C-20 31 -20 31 -20.51513672 29.15576172 C-21.62618929 14.12523151 -21.62618929 14.12523151 -17.78515625 9.10546875 C-14.94461929 7.06760753 -12.15536542 5.49710214 -9 4 C-7.64100945 3.17455679 -6.28584712 2.34271695 -4.9375 1.5 C-2 0 -2 0 0 0 Z " fill="#D3A84E" transform="translate(166,67)"/>
<path d="M0 0 C1.2150975 -0.00762863 1.2150975 -0.00762863 2.45474243 -0.01541138 C4.76948592 -0.02711726 7.08368944 -0.02410976 9.3984375 -0.015625 C10.09949112 -0.01958786 10.80054474 -0.02355072 11.52284241 -0.02763367 C16.39441386 0.01941386 16.39441386 0.01941386 18.625 2.25 C18.79988254 4.68744897 18.85677405 7.0093608 18.8203125 9.4453125 C18.8174826 10.15275604 18.81465271 10.86019958 18.81173706 11.58908081 C18.80053137 13.8512251 18.77542679 16.11297515 18.75 18.375 C18.73997067 19.90754637 18.73084474 21.44009894 18.72265625 22.97265625 C18.70059086 26.73192301 18.66605896 30.49089464 18.625 34.25 C10.55847826 34.27312737 2.49197028 34.29091709 -5.57457638 34.30181217 C-9.31983037 34.30704014 -13.06506176 34.31413622 -16.81030273 34.32543945 C-20.42181687 34.33627141 -24.03330921 34.34227749 -27.64483833 34.34487724 C-29.02560329 34.34673094 -30.406367 34.35035049 -31.78712273 34.35573006 C-33.71475952 34.36294447 -35.64241807 34.36340809 -37.57006836 34.36352539 C-38.66927109 34.365746 -39.76847382 34.36796661 -40.90098572 34.37025452 C-43.375 34.25 -43.375 34.25 -44.375 33.25 C-44.47512401 31.04349344 -44.5058118 28.83377614 -44.5078125 26.625 C-44.50876923 25.96290527 -44.50972595 25.30081055 -44.51071167 24.61865234 C-44.51139326 23.21647039 -44.50954042 21.8142853 -44.50537109 20.41210938 C-44.50002246 18.25904287 -44.5053167 16.10618498 -44.51171875 13.953125 C-44.51105796 12.59374954 -44.50977679 11.2343742 -44.5078125 9.875 C-44.50668457 8.62976563 -44.50555664 7.38453125 -44.50439453 6.1015625 C-44.375 3.25 -44.375 3.25 -43.375 2.25 C-29.16605889 -0.16883918 -14.37262888 0.03739285 0 0 Z M-20.6875 3.6875 C-22.55486816 3.74623291 -22.55486816 3.74623291 -24.45996094 3.80615234 C-26.23741699 3.86923584 -26.23741699 3.86923584 -28.05078125 3.93359375 C-29.6272644 3.98858032 -29.6272644 3.98858032 -31.2355957 4.04467773 C-34.63193785 4.26680416 -38.00560977 4.76865854 -41.375 5.25 C-41.375 13.83 -41.375 22.41 -41.375 31.25 C-22.565 31.25 -3.755 31.25 15.625 31.25 C15.625 22.34 15.625 13.43 15.625 4.25 C13.81162149 2.43662149 11.31129292 3.1175616 8.8972168 3.11108398 C7.64871948 3.11797241 7.64871948 3.11797241 6.375 3.125 C5.07719604 3.12898804 5.07719604 3.12898804 3.75317383 3.13305664 C-4.3971702 3.18896332 -12.54162323 3.42185129 -20.6875 3.6875 Z " fill="#133E3D" transform="translate(103.375,73.75)"/>
<path d="M0 0 C1.18580658 0.00444122 2.37161316 0.00888245 3.59335327 0.01345825 C4.24713455 0.0131662 4.90091583 0.01287415 5.57450867 0.01257324 C7.73896483 0.01396839 9.90307822 0.02953783 12.06747437 0.04519653 C13.56677055 0.04892602 15.06606916 0.05177329 16.56536865 0.05377197 C20.5142793 0.06141355 24.46304316 0.08106644 28.41189575 0.10317993 C32.44029759 0.12362713 36.46872311 0.13277127 40.49716187 0.14285278 C48.40347928 0.16431192 56.30967732 0.19845409 64.21591187 0.24050903 C65.70602092 3.22072715 65.3992472 6.27975095 65.41903687 9.54910278 C65.42473694 10.27162735 65.43043701 10.99415192 65.43630981 11.73857117 C65.44575905 13.26760391 65.4522935 14.79665702 65.45614624 16.32571411 C65.46585998 18.66551145 65.49688563 21.00443326 65.52841187 23.34402466 C65.53494123 24.82904548 65.54019197 26.31407259 65.54403687 27.79910278 C65.55638367 28.49917953 65.56873047 29.19925629 65.58145142 29.92054749 C65.55940536 34.72484886 65.55940536 34.72484886 64.09259033 36.92686462 C61.33581598 38.85656184 59.17528071 38.6074343 55.83261108 38.59695435 C54.51469574 38.59995544 53.1967804 38.60295654 51.83892822 38.60604858 C50.3994813 38.59404463 48.96003829 38.58156173 47.52059937 38.56863403 C46.04754834 38.56557652 44.57449444 38.56370034 43.10144043 38.56295776 C40.01627519 38.55835622 36.9313712 38.54393394 33.84628296 38.52175903 C29.8836844 38.4934271 25.92129122 38.4825425 21.958601 38.47807693 C18.91837494 38.4739292 15.87819074 38.46411797 12.83798599 38.45220184 C11.37628644 38.44648955 9.91458283 38.44173403 8.45287704 38.43793488 C6.41536813 38.43109266 4.37788933 38.41656627 2.34042358 38.40164185 C0.59860306 38.39139984 0.59860306 38.39139984 -1.17840576 38.38095093 C-3.78408813 38.24050903 -3.78408813 38.24050903 -4.78408813 37.24050903 C-4.89740906 34.67031418 -4.94826299 32.12799426 -4.95205688 29.55691528 C-4.95704948 28.40086037 -4.95704948 28.40086037 -4.96214294 27.22145081 C-4.96721524 25.58807982 -4.96955118 23.95469843 -4.96939087 22.32131958 C-4.97157593 19.81699604 -4.98972409 17.31311383 -5.00869751 14.80886841 C-5.01163161 13.22488555 -5.01361629 11.64090058 -5.01455688 10.05691528 C-5.0217424 9.30479263 -5.02892792 8.55266998 -5.03633118 7.77775574 C-5.00392363 0.43227397 -5.00392363 0.43227397 0 0 Z M-1.78408813 4.24050903 C-1.88421215 6.44701559 -1.91489993 8.6567329 -1.91690063 10.86550903 C-1.91785736 11.52760376 -1.91881409 12.18969849 -1.9197998 12.87185669 C-1.9204814 14.27403864 -1.91862855 15.67622374 -1.91445923 17.07839966 C-1.9091106 19.23146617 -1.91440483 21.38432406 -1.92080688 23.53738403 C-1.9201461 24.8967595 -1.91886493 26.25613483 -1.91690063 27.61550903 C-1.91577271 28.86074341 -1.91464478 30.10597778 -1.91348267 31.38894653 C-2.1098094 34.13956334 -2.1098094 34.13956334 -0.78408813 35.24050903 C1.14897685 35.3344696 3.08550025 35.35794421 5.02084351 35.35403442 C6.88266014 35.35392113 6.88266014 35.35392113 8.78208923 35.35380554 C10.14674926 35.34869814 11.51140889 35.34348213 12.87606812 35.33816528 C14.2646937 35.33630104 15.65331994 35.33487717 17.04194641 35.33387756 C20.70312301 35.3300529 24.36426017 35.32022307 28.02542114 35.30917358 C31.7588345 35.29895835 35.4922542 35.2943797 39.22567749 35.28933716 C46.55577363 35.27860074 53.88583723 35.26152495 61.21591187 35.24050903 C61.26528887 30.71985475 61.30162009 26.19935686 61.32577515 21.67849731 C61.33584304 20.14005805 61.34949833 18.60163796 61.36679077 17.06326294 C61.39100503 14.85406771 61.40238677 12.64512508 61.41122437 10.43582153 C61.42154694 9.74618317 61.43186951 9.0565448 61.44250488 8.3460083 C61.44290665 6.64249997 61.33782212 4.93964961 61.21591187 3.24050903 C58.77461766 0.79921482 57.44664995 0.99506303 54.11375427 0.96287537 C53.41270065 0.96683823 52.71164703 0.97080109 51.98934937 0.97488403 C51.25715683 0.97220016 50.52496429 0.9695163 49.77058411 0.9667511 C47.37718441 0.96279507 44.98426282 0.97548308 42.59091187 0.99050903 C41.78189423 0.99261383 40.97287659 0.99471863 40.13934326 0.99688721 C17.77445198 -0.59901122 17.77445198 -0.59901122 -1.78408813 4.24050903 Z " fill="#C1A356" transform="translate(60.784088134765625,72.75949096679688)"/>
<path d="M0 0 C2.5 0.25 2.5 0.25 4.5 2.25 C4.46712417 4.97869407 3.93602229 7.5466618 3.5 10.25 C4.16 10.58 4.82 10.91 5.5 11.25 C6.09355614 13.89860427 6.24209269 16.54197322 6.5 19.25 C8.48 19.58 10.46 19.91 12.5 20.25 C11.51 21.24 10.52 22.23 9.5 23.25 C10.16 23.91 10.82 24.57 11.5 25.25 C11.75 27.75 11.75 27.75 11.5 30.25 C9.5 32.25 9.5 32.25 6.5625 32.5625 C3.5 32.25 3.5 32.25 1.75 30.875 C1.3375 30.33875 0.925 29.8025 0.5 29.25 C-0.16 28.59 -0.82 27.93 -1.5 27.25 C-2.03625 27.930625 -2.5725 28.61125 -3.125 29.3125 C-5.5 31.25 -5.5 31.25 -8.75 31 C-9.6575 30.7525 -10.565 30.505 -11.5 30.25 C-12.811986 26.06804463 -13.5 22.60420973 -13.5 18.25 C-14.16 17.59 -14.82 16.93 -15.5 16.25 C-15.875 13.8125 -15.875 13.8125 -15.5 11.25 C-13.8125 9.375 -13.8125 9.375 -11.5 8.25 C-8.80190224 8.50696169 -6.91649307 9.04175346 -4.5 10.25 C-4.5 10.91 -4.5 11.57 -4.5 12.25 C-3.84 12.25 -3.18 12.25 -2.5 12.25 C-2.995 11.445625 -2.995 11.445625 -3.5 10.625 C-4.74964598 7.6570908 -4.77756584 5.44200721 -4.5 2.25 C-2.5 0.25 -2.5 0.25 0 0 Z " fill="#D6A03A" transform="translate(115.5,27.75)"/>
<path d="M0 0 C6.22500922 0.58726502 6.22500922 0.58726502 8.92095947 2.02304077 C11.40612237 3.19084043 13.21268855 3.27648487 15.95214844 3.31884766 C16.93286316 3.33871735 17.91357788 3.35858704 18.92401123 3.37905884 C19.97518127 3.39061005 21.02635132 3.40216125 22.109375 3.4140625 C23.19132141 3.43342865 24.27326782 3.4527948 25.38800049 3.4727478 C28.84192026 3.53250237 32.29587344 3.57891297 35.75 3.625 C38.09246241 3.66318353 40.43491084 3.70223548 42.77734375 3.7421875 C48.51810499 3.83820056 54.25895053 3.92326027 60 4 C60 4.33 60 4.66 60 5 C59.27638779 5.01030746 58.55277557 5.02061493 57.80723572 5.03123474 C50.96633638 5.12947505 44.12551355 5.23202555 37.28475094 5.33933926 C33.76839576 5.39435174 30.25203201 5.44773524 26.7355957 5.49731445 C22.68692625 5.55447082 18.63839917 5.6188589 14.58984375 5.68359375 C13.33541977 5.70030624 12.08099579 5.71701874 10.78855896 5.73423767 C1.3851828 5.15877048 1.3851828 5.15877048 -7 8 C-7.0885067 10.59334148 -7.1153317 13.16062579 -7.09765625 15.75390625 C-7.09664917 16.44093628 -7.09564209 17.12796631 -7.09460449 17.83581543 C-7.08935776 20.41139384 -7.07539659 22.98694853 -7.0625 25.5625 C-7.041875 31.316875 -7.02125 37.07125 -7 43 C26.165 43.495 26.165 43.495 60 44 C60 44.33 60 44.66 60 45 C47.46 45.33 34.92 45.66 22 46 C28.6 46.33 35.2 46.66 42 47 C42 47.33 42 47.66 42 48 C34.08 48 26.16 48 18 48 C18.33 48.99 18.66 49.98 19 51 C21.9195043 51.9731681 24.05444951 52.1929546 27.10546875 52.31640625 C28.57983398 52.37924805 28.57983398 52.37924805 30.08398438 52.44335938 C31.10814453 52.48267578 32.13230469 52.52199219 33.1875 52.5625 C34.74114258 52.62727539 34.74114258 52.62727539 36.32617188 52.69335938 C38.8839819 52.79944366 41.44188845 52.90150146 44 53 C44 53.33 44 53.66 44 54 C39.56396533 54.28335021 35.1266445 54.52096978 30.6875 54.75 C29.42486328 54.83121094 28.16222656 54.91242188 26.86132812 54.99609375 C25.65283203 55.05410156 24.44433594 55.11210938 23.19921875 55.171875 C22.08377686 55.2347168 20.96833496 55.29755859 19.8190918 55.36230469 C17 55 17 55 15.11254883 53.23925781 C14 51 14 51 14 47 C13.34926514 47.01571045 12.69853027 47.0314209 12.02807617 47.04760742 C9.08130576 47.10994649 6.13467402 47.14898684 3.1875 47.1875 C2.16333984 47.21263672 1.13917969 47.23777344 0.08398438 47.26367188 C-1.39038086 47.27817383 -1.39038086 47.27817383 -2.89453125 47.29296875 C-3.80050049 47.3086792 -4.70646973 47.32438965 -5.63989258 47.34057617 C-8.52283168 46.92455258 -9.20584437 46.24248078 -11 44 C-11.29841479 41.02260864 -11.42027068 38.25881789 -11.3984375 35.28125 C-11.40274277 33.99982117 -11.40274277 33.99982117 -11.40713501 32.69250488 C-11.40917581 30.88695615 -11.40364483 29.08138531 -11.39111328 27.27587891 C-11.37505944 24.51023988 -11.39096099 21.74606225 -11.41015625 18.98046875 C-11.40817382 17.22655927 -11.40433015 15.4726507 -11.3984375 13.71875 C-11.40451019 12.89056763 -11.41058289 12.06238525 -11.4168396 11.20910645 C-11.34624756 5.45438936 -11.34624756 5.45438936 -9.70230103 3.29699707 C-7.06716167 1.28926285 -4.22737054 1.35859673 -1 1 C-0.67 0.67 -0.34 0.34 0 0 Z " fill="#0F3B39" transform="translate(64,67)"/>
<path d="M0 0 C4.33417376 2.92849579 6.75512055 5.92397991 8 11 C8.9241946 18.87464444 7.48554111 24.09414969 3.25 30.75 C-0.72337489 34.72337489 -5.03723281 36.1584461 -10.5625 36.4375 C-14.99936856 36.27849959 -17.6241071 34.96419864 -21 32 C-22.5 30.0625 -22.5 30.0625 -23 28 C-22.125 25.25 -22.125 25.25 -21 23 C-20.67 23 -20.34 23 -20 23 C-19.7525 23.969375 -19.505 24.93875 -19.25 25.9375 C-18.8375 26.948125 -18.425 27.95875 -18 29 C-15.96756452 29.96877057 -15.96756452 29.96877057 -14 30 C-13.67 27.69 -13.34 25.38 -13 23 C-14.98 22.34 -16.96 21.68 -19 21 C-19 20.34 -19 19.68 -19 19 C-18.34 19 -17.68 19 -17 19 C-16.80522261 17.37585622 -16.61940542 15.75063577 -16.4375 14.125 C-16.33308594 13.22007813 -16.22867188 12.31515625 -16.12109375 11.3828125 C-15.80325148 8.98346943 -15.80325148 8.98346943 -17 7 C-16.39421747 4.98072489 -15.73080266 2.97746603 -15 1 C-14.67 1 -14.34 1 -14 1 C-13.34 3.31 -12.68 5.62 -12 8 C-11.030625 7.979375 -10.06125 7.95875 -9.0625 7.9375 C-6 8 -6 8 -5 9 C-4.95907063 11.33297433 -4.95758277 13.66705225 -5 16 C-5.66 16.33 -6.32 16.66 -7 17 C-6.67 14.69 -6.34 12.38 -6 10 C-6.66 10 -7.32 10 -8 10 C-8 10.66 -8 11.32 -8 12 C-9.65 12 -11.3 12 -13 12 C-12.73343428 14.93443402 -12.73343428 14.93443402 -12 18 C-11.01 18.66 -10.02 19.32 -9 20 C-9.33 20.33 -9.66 20.66 -10 21 C-9.34 21.33 -8.68 21.66 -8 22 C-8.020625 22.763125 -8.04125 23.52625 -8.0625 24.3125 C-8.12942841 27.10185786 -8.12942841 27.10185786 -7 30 C-5.02 29.34 -3.04 28.68 -1 28 C-0.896875 26.9275 -0.79375 25.855 -0.6875 24.75 C0 21 0 21 1.625 19 C3.38890057 16.88630149 3.38890057 16.88630149 2.6875 13.25 C2.3471875 11.64125 2.3471875 11.64125 2 10 C0.35 9.34 -1.3 8.68 -3 8 C-3 7.67 -3 7.34 -3 7 C-1.35 7 0.3 7 2 7 C1.34 4.69 0.68 2.38 0 0 Z " fill="#D29B36" transform="translate(80,32)"/>
<path d="M0 0 C3.5625 0.1875 3.5625 0.1875 5.5625 2.1875 C5.7499551 4.90060649 5.81815406 7.50979085 5.79296875 10.22265625 C5.79228142 11.41344032 5.79228142 11.41344032 5.7915802 12.62828064 C5.78855765 14.30697117 5.78067125 15.9856589 5.76831055 17.66430664 C5.75004885 20.24310158 5.74780087 22.82153777 5.74804688 25.40039062 C5.74313196 27.02864896 5.73730376 28.65690484 5.73046875 30.28515625 C5.72935593 31.06117691 5.7282431 31.83719757 5.72709656 32.63673401 C5.67855007 38.07144993 5.67855007 38.07144993 4.5625 39.1875 C1.125 39.375 1.125 39.375 -2.4375 39.1875 C-4.99183751 36.63316249 -4.67480793 34.98016117 -4.68974304 31.49778748 C-4.67896477 30.33679283 -4.67896477 30.33679283 -4.66796875 29.15234375 C-4.66751053 28.3584877 -4.66705231 27.56463165 -4.6665802 26.74671936 C-4.66355765 25.06802883 -4.65567125 23.3893411 -4.64331055 21.71069336 C-4.62504885 19.13189842 -4.62280087 16.55346223 -4.62304688 13.97460938 C-4.61813196 12.34635104 -4.61230376 10.71809516 -4.60546875 9.08984375 C-4.60435593 8.31382309 -4.6032431 7.53780243 -4.60209656 6.73826599 C-4.54411996 0.24786109 -4.54411996 0.24786109 0 0 Z " fill="#18433F" transform="translate(174.4375,68.8125)"/>
<path d="M0 0 C5.20104595 0.09304197 8.50523662 2.10620493 12.4375 5.375 C13.04335937 5.87515625 13.64921875 6.3753125 14.2734375 6.890625 C18.78298406 11.59071578 18.88938488 16.16013864 18.8125 22.375 C18.7350814 25.04815353 18.60133833 27.705042 18.4375 30.375 C17.7775 29.385 17.1175 28.395 16.4375 27.375 C15.4475 27.375 14.4575 27.375 13.4375 27.375 C13.4375 26.715 13.4375 26.055 13.4375 25.375 C11.1275 25.705 8.8175 26.035 6.4375 26.375 C3.26123749 22.92254075 2.75120147 20.0020967 2.4375 15.375 C2.6977896 13.03239357 3.01170028 10.6932429 3.4375 8.375 C1.4575 7.715 -0.5225 7.055 -2.5625 6.375 C-2.5625 5.385 -2.5625 4.395 -2.5625 3.375 C-3.2225 2.715 -3.8825 2.055 -4.5625 1.375 C-3.5625 0.375 -3.5625 0.375 0 0 Z " fill="#D6A43F" transform="translate(115.5625,21.625)"/>
<path d="M0 0 C3.96 0 7.92 0 12 0 C14.68475487 2.68475487 14.249526 4.75147314 14.27789307 8.40074158 C14.2738446 9.27783279 14.26979614 10.15492401 14.265625 11.05859375 C14.26753845 11.95868668 14.2694519 12.8587796 14.27142334 13.78614807 C14.27278573 15.69182616 14.26908557 17.59751351 14.26074219 19.50317383 C14.25005583 22.42224995 14.26062922 25.34070889 14.2734375 28.25976562 C14.27211567 30.10937636 14.26955279 31.95898671 14.265625 33.80859375 C14.26967346 34.68366074 14.27372192 35.55872772 14.27789307 36.46031189 C14.27158875 37.27448074 14.26528442 38.0886496 14.25878906 38.92749023 C14.25640228 40.00098976 14.25640228 40.00098976 14.25396729 41.09617615 C14 43 14 43 12 46 C7.87858143 47.29530298 4.47366834 47 0 47 C0 31.49 0 15.98 0 0 Z M1 5 C0.88663374 7.64286274 0.83582239 10.25861456 0.83203125 12.90234375 C0.82870285 13.69524307 0.82537445 14.4881424 0.82194519 15.30506897 C0.81687274 16.98551858 0.81453696 18.66597829 0.81469727 20.34643555 C0.81251214 22.92318259 0.79436391 25.49950076 0.77539062 28.07617188 C0.77245655 29.7057277 0.77047185 31.33528556 0.76953125 32.96484375 C0.76234573 33.73884018 0.75516022 34.51283661 0.74775696 35.31028748 C0.60417728 39.61916183 0.60417728 39.61916183 3 43 C6.54178598 43.25003964 6.54178598 43.25003964 10 43 C12.01974733 40.98025267 11.16399439 36.86915483 11.16796875 34.09765625 C11.17129715 33.30475693 11.17462555 32.5118576 11.17805481 31.69493103 C11.18312726 30.01448142 11.18546304 28.33402171 11.18530273 26.65356445 C11.18748786 24.07681741 11.20563609 21.50049924 11.22460938 18.92382812 C11.22754345 17.2942723 11.22952815 15.66471444 11.23046875 14.03515625 C11.23765427 13.26115982 11.24483978 12.48716339 11.25224304 11.68971252 C11.39582272 7.38083817 11.39582272 7.38083817 9 4 C4.6892199 3.41683815 4.6892199 3.41683815 1 5 Z " fill="#BC9F56" transform="translate(169,65)"/>
<path d="M0 0 C14.19 0 28.38 0 43 0 C44.49544542 2.99089084 44.16279298 6.06367186 44.16796875 9.34375 C44.17296135 10.43109436 44.17296135 10.43109436 44.17805481 11.54040527 C44.18311925 13.07364263 44.18546328 14.60689101 44.18530273 16.14013672 C44.18749138 18.49074343 44.20565751 20.84088249 44.22460938 23.19140625 C44.22754292 24.67968589 44.22952798 26.16796777 44.23046875 27.65625 C44.23765427 28.36148804 44.24483978 29.06672607 44.25224304 29.79333496 C44.22882848 34.77117152 44.22882848 34.77117152 42 37 C39.4057312 37.24050903 39.4057312 37.24050903 36.08154297 37.22705078 C34.84040741 37.22689972 33.59927185 37.22674866 32.32052612 37.22659302 C30.9610783 37.216379 29.6016321 37.205947 28.2421875 37.1953125 C26.85499271 37.19158284 25.46779529 37.18873565 24.08059692 37.18673706 C20.42759949 37.17909684 16.77476083 37.15944516 13.12182617 37.1373291 C9.39504138 37.11687896 5.66823096 37.10773713 1.94140625 37.09765625 C-5.37246825 37.07619951 -12.68621189 37.04205903 -20 37 C-20 36.67 -20 36.34 -20 36 C-0.53 35.67 18.94 35.34 39 35 C39.0309375 27.1109375 39.0309375 27.1109375 39.0625 19.0625 C39.071604 17.400979 39.08070801 15.73945801 39.09008789 14.02758789 C39.09258545 12.73071045 39.09508301 11.43383301 39.09765625 10.09765625 C39.10277222 9.41183472 39.10788818 8.72601318 39.11315918 8.01940918 C39.11347054 6.34584769 39.06222837 4.6724042 39 3 C36.91795642 0.91795642 32.4661444 1.74178708 29.58984375 1.68359375 C28.74780899 1.66281265 27.90577423 1.64203156 27.03822327 1.62062073 C24.33806821 1.55503188 21.63781283 1.49619724 18.9375 1.4375 C17.11131759 1.39432363 15.28514546 1.35070964 13.45898438 1.30664062 C8.97276008 1.19934106 4.4864345 1.09810034 0 1 C0 0.67 0 0.34 0 0 Z " fill="#DDB257" transform="translate(82,73)"/>
<path d="M0 0 C2.4375 0.25 2.4375 0.25 5 1 C7.32579101 4.48868651 7.41865457 5.89718519 7 10 C6.03542166 11.35917857 5.03145371 12.69084721 4 14 C3.29187186 16.32108669 2.61975848 18.65377147 2 21 C1 22 1 22 -1.4375 22.25 C-2.283125 22.1675 -3.12875 22.085 -4 22 C-6 19 -6 19 -5.625 16.3125 C-5.41875 15.549375 -5.2125 14.78625 -5 14 C-5.99 13.67 -6.98 13.34 -8 13 C-10.29013653 9.5647952 -10.17842973 8.014669 -10 4 C-8.35 4 -6.7 4 -5 4 C-5 3.34 -5 2.68 -5 2 C-4.34 2 -3.68 2 -3 2 C-3 3.98 -3 5.96 -3 8 C-2.690625 6.865625 -2.38125 5.73125 -2.0625 4.5625 C-1 1 -1 1 0 0 Z " fill="#CC9534" transform="translate(77,40)"/>
<path d="M0 0 C2.70904899 2.70904899 2.88041248 5.02848463 3.7265625 8.7578125 C3.87910492 9.42086395 4.03164734 10.08391541 4.18881226 10.76705933 C4.67438796 12.88487784 5.14979826 15.00483222 5.625 17.125 C5.95245806 18.56135013 6.28057506 19.9975502 6.609375 21.43359375 C7.41390307 24.95402015 8.2093303 28.47643199 9 32 C9.33 29.69 9.66 27.38 10 25 C13.03918463 29.55877695 14.29408315 34.5983209 13.625 40.0625 C13.41875 40.701875 13.2125 41.34125 13 42 C10.69 41.67 8.38 41.34 6 41 C4.83041036 36.3764481 3.67313135 31.75005301 2.52709961 27.12060547 C2.1356054 25.54652315 1.7407739 23.97326693 1.3425293 22.40087891 C0.77030819 20.13914106 0.21019836 17.87469318 -0.34765625 15.609375 C-0.52780777 14.90818542 -0.70795929 14.20699585 -0.89356995 13.48455811 C-1.7381679 10.00382616 -2.30195877 7.3955483 -1 4 C-0.814375 3.2575 -0.62875 2.515 -0.4375 1.75 C-0.293125 1.1725 -0.14875 0.595 0 0 Z " fill="#1A433F" transform="translate(105,131)"/>
<path d="M0 0 C2.5 0.25 2.5 0.25 4.5 2.25 C4.27181974 8.52495722 4.27181974 8.52495722 1.4375 11.1875 C0.798125 11.538125 0.15875 11.88875 -0.5 12.25 C0.49 12.91 1.48 13.57 2.5 14.25 C2.6875 16.875 2.6875 16.875 2.5 19.25 C0.85 19.58 -0.8 19.91 -2.5 20.25 C-3.16 18.27 -3.82 16.29 -4.5 14.25 C-5.221875 14.930625 -5.94375 15.61125 -6.6875 16.3125 C-9.5 18.25 -9.5 18.25 -12.25 18.0625 C-14.5 17.25 -14.5 17.25 -15.5 16.25 C-15.8125 13.875 -15.8125 13.875 -15.5 11.25 C-13.8125 9.375 -13.8125 9.375 -11.5 8.25 C-8.80190224 8.50696169 -6.91649307 9.04175346 -4.5 10.25 C-4.5 10.91 -4.5 11.57 -4.5 12.25 C-3.84 12.25 -3.18 12.25 -2.5 12.25 C-2.995 11.445625 -2.995 11.445625 -3.5 10.625 C-4.74964598 7.6570908 -4.77756584 5.44200721 -4.5 2.25 C-2.5 0.25 -2.5 0.25 0 0 Z " fill="#19453F" transform="translate(115.5,27.75)"/>
<path d="M0 0 C0 15.18 0 30.36 0 46 C-0.33 46 -0.66 46 -1 46 C-2.128715 35.87717983 -2.32164635 25.74256308 -2.55224609 15.5703125 C-2.60371564 13.35664984 -2.66094673 11.14319239 -2.71875 8.9296875 C-2.74904297 7.62241699 -2.77933594 6.31514648 -2.81054688 4.96826172 C-2.66448864 2.11530119 -2.66448864 2.11530119 -4 1 C-8.29 0.67 -12.58 0.34 -17 0 C-17 15.51 -17 31.02 -17 47 C-19 45 -19 45 -19.24050903 43.01315308 C-19.23606781 42.20040924 -19.23162659 41.38766541 -19.22705078 40.55029297 C-19.22689972 39.62948944 -19.22674866 38.70868591 -19.22659302 37.75997925 C-19.21627045 36.76410797 -19.20594788 35.76823669 -19.1953125 34.7421875 C-19.1924826 33.72399933 -19.18965271 32.70581116 -19.18673706 31.6567688 C-19.1755177 28.396061 -19.15040996 25.13562516 -19.125 21.875 C-19.11497247 19.66797271 -19.10584623 17.46094112 -19.09765625 15.25390625 C-19.07557268 9.83584428 -19.04207795 4.41794157 -19 -1 C-16.58388467 -1.22237877 -14.1682283 -1.42832339 -11.75 -1.625 C-11.06808594 -1.68945312 -10.38617188 -1.75390625 -9.68359375 -1.8203125 C-5.49521834 -2.14562321 -3.89183658 -1.94591829 0 0 Z " fill="#07353A" transform="translate(185,65)"/>
<path d="M0 0 C3.31738222 2.9487842 3.47106946 5.68047611 4.25 10 C2.6 10 0.95 10 -0.75 10 C-1.41 11.32 -2.07 12.64 -2.75 14 C-3.41 13.34 -4.07 12.68 -4.75 12 C-5.575 12 -6.4 12 -7.25 12 C-8.075 12 -8.9 12 -9.75 12 C-12.10953094 9.64046906 -12.24141413 8.22104383 -12.75 5 C-13.08 6.65 -13.41 8.3 -13.75 10 C-15.16898766 7.35122304 -16.06911019 4.91985181 -16.75 2 C-10.81942591 -0.45403066 -6.31803295 -2.29746653 0 0 Z " fill="#C89333" transform="translate(77.75,29)"/>
<path d="M0 0 C5.09031755 -0.04936158 10.18049643 -0.08570105 15.27099609 -0.10986328 C17.00344265 -0.11993376 18.73587216 -0.13359089 20.46826172 -0.15087891 C22.95544639 -0.17508162 25.44240675 -0.18647239 27.9296875 -0.1953125 C29.09538773 -0.21079636 29.09538773 -0.21079636 30.28463745 -0.22659302 C32.19125493 -0.22699271 34.09731036 -0.1223214 36 0 C38 2 38 2 38.22705078 5.16455078 C38.22673389 6.50817963 38.21542181 7.8518341 38.1953125 9.1953125 C38.1924826 9.90275604 38.18965271 10.61019958 38.18673706 11.33908081 C38.17553137 13.6012251 38.15042679 15.86297515 38.125 18.125 C38.11497067 19.65754637 38.10584474 21.19009894 38.09765625 22.72265625 C38.07559086 26.48192301 38.04105896 30.24089464 38 34 C37.34 33.34 36.68 32.68 36 32 C33.45096706 31.70694289 33.45096706 31.70694289 30.44873047 31.77294922 C29.28767792 31.77310028 28.12662537 31.77325134 26.9303894 31.77340698 C25.04285446 31.78889084 25.04285446 31.78889084 23.1171875 31.8046875 C21.19037643 31.80893234 21.19037643 31.80893234 19.22463989 31.81326294 C15.80837233 31.82090191 12.39227463 31.84055248 8.97607422 31.8626709 C5.49058327 31.88312376 2.0050649 31.89226345 -1.48046875 31.90234375 C-8.32038231 31.92379825 -15.160183 31.95793729 -22 32 C-22 31.67 -22 31.34 -22 31 C-3.19 31 15.62 31 35 31 C34.67 22.09 34.34 13.18 34 4 C28.39 3.67 22.78 3.34 17 3 C17 2.67 17 2.34 17 2 C11.39 1.67 5.78 1.34 0 1 C0 0.67 0 0.34 0 0 Z " fill="#273D2A" transform="translate(84,74)"/>
<path d="M0 0 C0.33 0 0.66 0 1 0 C1 15.51 1 31.02 1 47 C4.96 46.34 8.92 45.68 13 45 C13.66 41.7 14.32 38.4 15 35 C15.33 35 15.66 35 16 35 C16.33 38.96 16.66 42.92 17 47 C10.87584496 50.67449302 6.10813477 51.71644847 -1 51 C-5.07470003 49.13907531 -8.51485092 46.80069095 -12 44 C-9.13822943 42.56911472 -7.06624227 43.40008303 -4 44 C-3.34 43.01 -2.68 42.02 -2 41 C-1.67 42.32 -1.34 43.64 -1 45 C-0.67 30.15 -0.34 15.3 0 0 Z " fill="#3B5240" transform="translate(168,65)"/>
<path d="M0 0 C0.45375 0.495 0.9075 0.99 1.375 1.5 C2.87635519 3.22609337 2.87635519 3.22609337 5 3 C6.55617654 8.33546241 7.46232053 13.68164686 8.1875 19.1875 C8.28337402 19.87650391 8.37924805 20.56550781 8.47802734 21.27539062 C8.9584027 25.11467685 8.94968577 28.25476035 8 32 C7.9629721 33.6662553 7.95240038 35.33401319 8 37 C6.09472262 34.14208393 5.50910062 32.54776297 4.78125 29.28125 C4.57113281 28.34796875 4.36101562 27.4146875 4.14453125 26.453125 C3.93183594 25.47859375 3.71914062 24.5040625 3.5 23.5 C3.18095703 22.08460938 3.18095703 22.08460938 2.85546875 20.640625 C1.7602528 15.7222319 0.73496762 10.7915602 -0.21875 5.84375 C-0.39341797 4.93818359 -0.56808594 4.03261719 -0.74804688 3.09960938 C-0.83119141 2.40673828 -0.91433594 1.71386719 -1 1 C-0.67 0.67 -0.34 0.34 0 0 Z " fill="#1F4441" transform="translate(107,129)"/>
<path d="M0 0 C8.58 0 17.16 0 26 0 C26 1.65 26 3.3 26 5 C22.41673499 5.05814085 18.83359162 5.09364357 15.25 5.125 C14.23421875 5.14175781 13.2184375 5.15851563 12.171875 5.17578125 C11.1921875 5.18222656 10.2125 5.18867187 9.203125 5.1953125 C7.85202637 5.21102295 7.85202637 5.21102295 6.47363281 5.22705078 C3.86073144 4.98721676 2.24335334 4.32312064 0 3 C0 2.01 0 1.02 0 0 Z " fill="#CEA54D" transform="translate(82,115)"/>
<path d="M0 0 C0.99 0.33 1.98 0.66 3 1 C3.144375 2.134375 3.28875 3.26875 3.4375 4.4375 C3.61171478 7.80777201 3.61171478 7.80777201 5 9 C4.4 15.6 4.4 15.6 2 18 C-0.625 17.625 -0.625 17.625 -3 17 C-3 15.02 -3 13.04 -3 11 C-3.99 10.67 -4.98 10.34 -6 10 C-4.6302836 6.00499382 -2.74277578 3.19990508 0 0 Z " fill="#CF942F" transform="translate(60,32)"/>
<path d="M0 0 C0.33 0 0.66 0 1 0 C1.02505615 1.08531006 1.0501123 2.17062012 1.07592773 3.28881836 C1.16983755 7.301316 1.27009767 11.31363382 1.37231445 15.32592773 C1.41572573 17.06514288 1.45739612 18.80440235 1.49731445 20.54370117 C1.55486768 23.03838488 1.6186042 25.5328441 1.68359375 28.02734375 C1.70030624 28.80963852 1.71701874 29.59193329 1.73423767 30.39793396 C1.50648731 33.99871781 1.50648731 33.99871781 3 37 C4.51928038 37.07179964 6.04167482 37.08392007 7.5625 37.0625 C8.38878906 37.05347656 9.21507812 37.04445312 10.06640625 37.03515625 C10.70449219 37.02355469 11.34257812 37.01195312 12 37 C12.33 37.99 12.66 38.98 13 40 C8.13112025 41.90005063 5.57710066 42 0 42 C0 28.14 0 14.28 0 0 Z " fill="#E9BD5F" transform="translate(169,70)"/>
<path d="M0 0 C0.40910782 3.47741644 0.21684216 4.71320875 -1.9375 7.5625 C-5.25336923 12.00318706 -4.82743836 17.6678453 -5 23 C-5.99 23.33 -6.98 23.66 -8 24 C-9.07085173 8.88909228 -9.07085173 8.88909228 -6.4765625 4.3125 C-2.07421875 0 -2.07421875 0 0 0 Z " fill="#D7AE55" transform="translate(140,75)"/>
<path d="M0 0 C3.29714793 0.32971479 4.6226839 0.6226839 7 3 C7.25 5.5 7.25 5.5 7 8 C5 10 5 10 2 10.3125 C1.01 10.209375 0.02 10.10625 -1 10 C-3 7 -3 7 -2.75 4.4375 C-2 2 -2 2 0 0 Z " fill="#1E443D" transform="translate(120,50)"/>
<path d="M0 0 C2 3 2 3 1.75 5.5625 C1 8 1 8 -1 10 C-4.125 9.625 -4.125 9.625 -7 9 C-8.33157895 3.55263158 -8.33157895 3.55263158 -6.875 1.125 C-4.38370746 -0.36977553 -2.85550958 -0.43930917 0 0 Z " fill="#1A433C" transform="translate(111,49)"/>
<path d="M0 0 C2.5 0.25 2.5 0.25 4.5 2.25 C3.92307692 8.82692308 3.92307692 8.82692308 2.5 10.25 C0.0625 10.4375 0.0625 10.4375 -2.5 10.25 C-4.5 8.25 -4.5 8.25 -4.75 5.25 C-4.43608753 1.48305032 -3.83691092 0.38369109 0 0 Z " fill="#234236" transform="translate(115.5,27.75)"/>
<path d="M0 0 C2.5 0.25 2.5 0.25 4.5 2.25 C4.86796448 5.12012296 4.87509409 6.65774618 3.3125 9.125 C1.5 10.25 1.5 10.25 -1.125 10 C-3.5 9.25 -3.5 9.25 -4.5 8.25 C-4.6875 5.3125 -4.6875 5.3125 -4.5 2.25 C-2.5 0.25 -2.5 0.25 0 0 Z " fill="#1A4640" transform="translate(126.5,36.75)"/>
<path d="M0 0 C2.4375 0.25 2.4375 0.25 5 1 C7 4 7 4 6.75 6.0625 C6 8 6 8 4 10 C-0.55555556 9.44444444 -0.55555556 9.44444444 -2 8 C-1.28 1.28 -1.28 1.28 0 0 Z " fill="#1C433B" transform="translate(77,40)"/>
<path d="M0 0 C4.55555556 0.55555556 4.55555556 0.55555556 6 2 C5.71269945 4.33944736 5.38063221 6.6739143 5 9 C3.1875 9.6875 3.1875 9.6875 1 10 C-0.75 8.875 -0.75 8.875 -2 7 C-2.3125 4.4375 -2.3125 4.4375 -2 2 C-1.34 1.34 -0.68 0.68 0 0 Z " fill="#1C433B" transform="translate(62,53)"/>
<path d="M0 0 C2.93453261 0.36681658 3.86437246 0.86437246 6 3 C5.44444444 7.55555556 5.44444444 7.55555556 4 9 C1.5625 9.25 1.5625 9.25 -1 9 C-3 6 -3 6 -2.75 3.9375 C-2 2 -2 2 0 0 Z " fill="#13403D" transform="translate(74,53)"/>
<path d="M0 0 C2.83182454 2.83182454 2.85000228 6.00058655 3.4375 9.8125 C4.51041121 16.37668357 5.8191431 22.8121973 7.44921875 29.265625 C7.98511839 31.92611967 8.10365677 34.29505201 8 37 C6.09472262 34.14208393 5.50910062 32.54776297 4.78125 29.28125 C4.57113281 28.34796875 4.36101562 27.4146875 4.14453125 26.453125 C3.93183594 25.47859375 3.71914062 24.5040625 3.5 23.5 C3.18095703 22.08460938 3.18095703 22.08460938 2.85546875 20.640625 C1.7602528 15.7222319 0.73496762 10.7915602 -0.21875 5.84375 C-0.39341797 4.93818359 -0.56808594 4.03261719 -0.74804688 3.09960938 C-0.83119141 2.40673828 -0.91433594 1.71386719 -1 1 C-0.67 0.67 -0.34 0.34 0 0 Z " fill="#9C8D51" transform="translate(107,129)"/>
<path d="M0 0 C-0.99 1.485 -0.99 1.485 -2 3 C-2.66 2.34 -3.32 1.68 -4 1 C-8.65667144 0.40814488 -13.30932066 0.25585524 -18 0 C-18 9.24 -18 18.48 -18 28 C-18.33 28 -18.66 28 -19 28 C-19 18.43 -19 8.86 -19 -1 C-16.6075 -1.20625 -14.215 -1.4125 -11.75 -1.625 C-11.00331055 -1.69541504 -10.25662109 -1.76583008 -9.48730469 -1.83837891 C-5.73849008 -2.1237244 -3.16258775 -2.13556183 0 0 Z " fill="#1C3A2F" transform="translate(185,65)"/>
<path d="M0 0 C0.33 0.66 0.66 1.32 1 2 C1.66 2 2.32 2 3 2 C3 1.34 3 0.68 3 0 C4.32 0.33 5.64 0.66 7 1 C6.01 1.495 6.01 1.495 5 2 C5.99 2.66 6.98 3.32 8 4 C8.1875 6.625 8.1875 6.625 8 9 C6.35 9.33 4.7 9.66 3 10 C2.34 8.02 1.68 6.04 1 4 C0.34 4 -0.32 4 -1 4 C-0.67 2.68 -0.34 1.36 0 0 Z " fill="#C2983F" transform="translate(110,38)"/>
<path d="M0 0 C3.96 0 7.92 0 12 0 C12 1.65 12 3.3 12 5 C8 5 4 5 0 5 C0 3.35 0 1.7 0 0 Z " fill="#D0A850" transform="translate(169,65)"/>
<path d="M0 0 C-0.33 0.66 -0.66 1.32 -1 2 C-5.95 2 -10.9 2 -16 2 C-16 2.99 -16 3.98 -16 5 C-16.99 5.33 -17.98 5.66 -19 6 C-19 4.35 -19 2.7 -19 1 C-13.34439238 -2.30454672 -6.18867042 -1.65031211 0 0 Z " fill="#224845" transform="translate(182,62)"/>
<path d="M0 0 C0.125 2.875 0.125 2.875 0 6 C-0.66 6.66 -1.32 7.32 -2 8 C-4.625 7.625 -4.625 7.625 -7 7 C-6.74438677 4.6568787 -6.40729228 2.32156597 -6 0 C-3.50907189 -1.24546405 -2.58919267 -0.7767578 0 0 Z " fill="#19403A" transform="translate(64,42)"/>
<path d="M0 0 C1.66611905 -0.042721 3.33382885 -0.04063832 5 0 C6 1 6 1 6.125 4 C6 7 6 7 5 8 C2.5 8.125 2.5 8.125 0 8 C-0.33 7.67 -0.66 7.34 -1 7 C-0.71269945 4.66055264 -0.38063221 2.3260857 0 0 Z " fill="#16403D" transform="translate(67,32)"/>
<path d="M0 0 C0.33 0.99 0.66 1.98 1 3 C1.99 3 2.98 3 4 3 C2.61990379 6.33523252 1.15049348 8.18607951 -2 10 C-2.99 9.67 -3.98 9.34 -5 9 C-5 8.34 -5 7.68 -5 7 C-5.66 6.67 -6.32 6.34 -7 6 C-6.030625 5.566875 -5.06125 5.13375 -4.0625 4.6875 C-0.72268235 3.2985139 -0.72268235 3.2985139 0 0 Z " fill="#C5963B" transform="translate(80,57)"/>
<path d="M0 0 C0.33 0 0.66 0 1 0 C1.33 12.54 1.66 25.08 2 38 C1.01 37.67 0.02 37.34 -1 37 C-0.67 24.79 -0.34 12.58 0 0 Z " fill="#043439" transform="translate(55,75)"/>
<path d="M0 0 C1.66611905 -0.042721 3.33382885 -0.04063832 5 0 C6 1 6 1 6.0625 4.0625 C6.041875 5.031875 6.02125 6.00125 6 7 C5.01 7.495 5.01 7.495 4 8 C1.875 7.0625 1.875 7.0625 0 6 C0 4.02 0 2.04 0 0 Z " fill="#144442" transform="translate(113,30)"/>
<path d="M0 0 C0.99 0 1.98 0 3 0 C3 0.99 3 1.98 3 3 C3.804375 2.979375 4.60875 2.95875 5.4375 2.9375 C8 3 8 3 9 4 C9.04063832 5.66617115 9.042721 7.33388095 9 9 C8.34 7.68 7.68 6.36 7 5 C5.35 5 3.7 5 2 5 C1.67 5.66 1.34 6.32 1 7 C0.01 6.34 -0.98 5.68 -2 5 C-1.34 3.35 -0.68 1.7 0 0 Z " fill="#C29236" transform="translate(56,37)"/>
<path d="M0 0 C0.78375 0.04125 1.5675 0.0825 2.375 0.125 C1.055 0.455 -0.265 0.785 -1.625 1.125 C-1.955 2.775 -2.285 4.425 -2.625 6.125 C-0.15 7.115 -0.15 7.115 2.375 8.125 C2.045 8.785 1.715 9.445 1.375 10.125 C-3.5 9.25 -3.5 9.25 -4.625 8.125 C-4.8125 5.1875 -4.8125 5.1875 -4.625 2.125 C-2.625 0.125 -2.625 0.125 0 0 Z " fill="#123D39" transform="translate(126.625,36.875)"/>
<path d="M0 0 C2.97 0 5.94 0 9 0 C9.33 0.99 9.66 1.98 10 3 C4.06 3.495 4.06 3.495 -2 4 C-2 3.34 -2 2.68 -2 2 C-1.34 2 -0.68 2 0 2 C0 1.34 0 0.68 0 0 Z " fill="#113E3C" transform="translate(111,19)"/>
<path d="M0 0 C2.475 0.99 2.475 0.99 5 2 C4.67 2.66 4.34 3.32 4 4 C3.95745644 5.99954746 3.95919217 8.00041636 4 10 C4 10.99 4 11.98 4 13 C2 12 2 12 0 9 C-1.25316456 2.50632911 -1.25316456 2.50632911 0 0 Z " fill="#C4993F" transform="translate(119,35)"/>
<path d="M0 0 C2.18994248 3.28491373 2.35277339 4.83095639 2.625 8.6875 C2.69976562 9.68136719 2.77453125 10.67523438 2.8515625 11.69921875 C2.92503906 12.83810547 2.92503906 12.83810547 3 14 C2.01 14.495 2.01 14.495 1 15 C0.63807496 12.87630763 0.28568253 10.7509887 -0.0625 8.625 C-0.25972656 7.44164062 -0.45695312 6.25828125 -0.66015625 5.0390625 C-1 2 -1 2 0 0 Z " fill="#153B38" transform="translate(115,156)"/>
<path d="M0 0 C0 1.98 0 3.96 0 6 C-0.33 6 -0.66 6 -1 6 C-1 4.35 -1 2.7 -1 1 C-2.65 1 -4.3 1 -6 1 C-6.12375 1.61875 -6.2475 2.2375 -6.375 2.875 C-7 5 -7 5 -9 7 C-9.25 4.6875 -9.25 4.6875 -9 2 C-6.04897468 -1.27891703 -4.09533092 -1.25135112 0 0 Z " fill="#2A4738" transform="translate(109,37)"/>
<path d="M0 0 C3.63 0 7.26 0 11 0 C10.67 1.65 10.34 3.3 10 5 C6.7 4.34 3.4 3.68 0 3 C0 2.01 0 1.02 0 0 Z " fill="#153832" transform="translate(68,25)"/>
<path d="M0 0 C0.66 0 1.32 0 2 0 C3.23076923 5.41538462 3.23076923 5.41538462 2.0625 8.375 C1.711875 8.91125 1.36125 9.4475 1 10 C-1.56687367 6.1496895 -0.83288724 4.41430237 0 0 Z " fill="#2F4E43" transform="translate(110,132)"/>
<path d="M0 0 C0.33 0 0.66 0 1 0 C1.33 3.96 1.66 7.92 2 12 C1.01 12.66 0.02 13.32 -1 14 C-1.99 13.67 -2.98 13.34 -4 13 C-4 12.34 -4 11.68 -4 11 C-3.525625 10.62875 -3.05125 10.2575 -2.5625 9.875 C-0.08184221 6.89821065 -0.31237519 3.81097735 0 0 Z " fill="#163F3D" transform="translate(183,100)"/>
<path d="M0 0 C0.556875 0.144375 1.11375 0.28875 1.6875 0.4375 C4.11384195 1.02769128 6.54906345 1.523429 9 2 C9 2.33 9 2.66 9 3 C6.69 3 4.38 3 2 3 C2 5.31 2 7.62 2 10 C1.67 10 1.34 10 1 10 C1 8.35 1 6.7 1 5 C0.34 5 -0.32 5 -1 5 C-0.67 3.35 -0.34 1.7 0 0 Z " fill="#2F4734" transform="translate(60,76)"/>
<path d="M0 0 C1.32 0 2.64 0 4 0 C4 1.65 4 3.3 4 5 C2.68 5.33 1.36 5.66 0 6 C-0.38218767 4.34385343 -0.71395102 2.67542976 -1 1 C-0.67 0.67 -0.34 0.34 0 0 Z " fill="#19413B" transform="translate(68,45)"/>
<path d="M0 0 C2.77042109 2.77042109 2.39796106 4.76533805 2.625 8.625 C2.69976562 9.81351563 2.77453125 11.00203125 2.8515625 12.2265625 C2.92503906 13.59941406 2.92503906 13.59941406 3 15 C0.92428418 11.88642627 0.44947895 10.0053011 -0.1875 6.375 C-0.36667969 5.39273438 -0.54585938 4.41046875 -0.73046875 3.3984375 C-0.81941406 2.60695312 -0.90835938 1.81546875 -1 1 C-0.67 0.67 -0.34 0.34 0 0 Z " fill="#CFA752" transform="translate(107,129)"/>
<path d="M0 0 C2.475 0.495 2.475 0.495 5 1 C4.67 2.32 4.34 3.64 4 5 C2.68 5 1.36 5 0 5 C0 3.35 0 1.7 0 0 Z " fill="#153D39" transform="translate(113,43)"/>
<path d="M0 0 C2.3828125 0.2421875 2.3828125 0.2421875 5.125 0.875 C6.03507812 1.07867187 6.94515625 1.28234375 7.8828125 1.4921875 C8.58148438 1.65976563 9.28015625 1.82734375 10 2 C10 2.33 10 2.66 10 3 C3.375 4 3.375 4 0 4 C-0.66 3.34 -1.32 2.68 -2 2 C-1.34 1.34 -0.68 0.68 0 0 Z " fill="#133934" transform="translate(55,70)"/>
<path d="M0 0 C2.125 0.375 2.125 0.375 4 1 C2.35 2.98 0.7 4.96 -1 7 C-1.66 6.67 -2.32 6.34 -3 6 C-2.42655063 3.13275314 -2.1385485 2.1385485 0 0 Z " fill="#20443A" transform="translate(74,53)"/>
<path d="M0 0 C0.33 2.64 0.66 5.28 1 8 C0.46375 7.195625 -0.0725 6.39125 -0.625 5.5625 C-3.43105369 2.53491576 -4.96825194 2.27489191 -9 2 C-9 1.67 -9 1.34 -9 1 C-5.846632 0.29925156 -3.27275026 0 0 0 Z " fill="#D4962E" transform="translate(74,29)"/>
<path d="M0 0 C1 2 2 4 3 6 C3.66 5.67 4.32 5.34 5 5 C5.99 5.66 6.98 6.32 8 7 C6.35 7.66 4.7 8.32 3 9 C0.90250005 6.64031256 0.03094296 5.45383006 -0.1875 2.25 C-0.125625 1.5075 -0.06375 0.765 0 0 Z " fill="#274540" transform="translate(78,113)"/>
<path d="M0 0 C1.2380014 3.57644848 0.74926071 6.33694766 0 10 C-0.33 9.34 -0.66 8.68 -1 8 C-1.99 7.67 -2.98 7.34 -4 7 C-2.68 4.69 -1.36 2.38 0 0 Z " fill="#CED1CD" transform="translate(93,127)"/>
<path d="M0 0 C7.50769231 -0.36923077 7.50769231 -0.36923077 10 1.5 C10.495 2.2425 10.495 2.2425 11 3 C6.78121808 3.19622241 3.82989106 2.80230168 0 1 C0 0.67 0 0.34 0 0 Z " fill="#BB9E53" transform="translate(58,73)"/>
<path d="M0 0 C1.65 0 3.3 0 5 0 C5.33 0.66 5.66 1.32 6 2 C5.01 2.33 4.02 2.66 3 3 C1.79117904 5.00016466 1.79117904 5.00016466 1 7 C0.67 4.69 0.34 2.38 0 0 Z " fill="#DDB256" transform="translate(57,74)"/>
<path d="M0 0 C0 0.33 0 0.66 0 1 C-1.98 1.33 -3.96 1.66 -6 2 C-5.67 2.66 -5.34 3.32 -5 4 C-6.65 3.67 -8.3 3.34 -10 3 C-10 2.34 -10 1.68 -10 1 C-6.78548731 -0.60725635 -3.56387464 -0.05748185 0 0 Z " fill="#2A4B3A" transform="translate(119,67)"/>
<path d="M0 0 C0.33 0.99 0.66 1.98 1 3 C-1.78823655 4.0326802 -2.8677274 4.04509293 -5.75 3.0625 C-6.4925 2.711875 -7.235 2.36125 -8 2 C-8 1.67 -8 1.34 -8 1 C-2.25 0 -2.25 0 0 0 Z " fill="#CEA854" transform="translate(181,107)"/>
<path d="M0 0 C1.32 0.66 2.64 1.32 4 2 C3.01 2.99 2.02 3.98 1 5 C1 4.34 1 3.68 1 3 C-0.98 3 -2.96 3 -5 3 C-4.360625 2.690625 -3.72125 2.38125 -3.0625 2.0625 C-1.06389179 1.1654837 -1.06389179 1.1654837 0 0 Z " fill="#C7A34B" transform="translate(126,58)"/>
<path d="M0 0 C0.66 0 1.32 0 2 0 C1.67 2.31 1.34 4.62 1 7 C0.67 5.68 0.34 4.36 0 3 C-1.65 3.33 -3.3 3.66 -5 4 C-5 3.34 -5 2.68 -5 2 C-3.35 2 -1.7 2 0 2 C0 1.34 0 0.68 0 0 Z " fill="#BA8C35" transform="translate(72,42)"/>
</svg>
