<?xml version="1.0" encoding="UTF-8"?>
<svg version="1.1" xmlns="http://www.w3.org/2000/svg" width="259" height="69">
<path d="M0 0 C85.47 0 170.94 0 259 0 C259 22.77 259 45.54 259 69 C173.53 69 88.06 69 0 69 C0 46.23 0 23.46 0 0 Z " fill="#39554F" transform="translate(0,0)"/>
<path d="M0 0 C85.47 0 170.94 0 259 0 C259 22.77 259 45.54 259 69 C173.53 69 88.06 69 0 69 C0 46.23 0 23.46 0 0 Z M12.25 12.875 C5.21078775 22.65168368 5.9831031 36.46048827 7.75 47.9375 C9.03312661 54.02571454 11.11549504 57.56777623 16.125 61.375 C21.52346637 64.16691072 27.39815283 63.41289454 33.2199707 62.48901367 C36.90842357 62.01184703 40.38941005 61.90141446 44.10546875 61.9375 C46.07483398 61.94910156 46.07483398 61.94910156 48.08398438 61.9609375 C49.45182841 61.97336799 50.81966715 61.98639456 52.1875 62 C54.88936739 62.0266663 57.59098425 62.04653554 60.29296875 62.0625 C62.07997192 62.07990234 62.07997192 62.07990234 63.90307617 62.09765625 C66.49689221 62.01586465 68.52151041 61.65395892 71 61 C71.33 61.33 71.66 61.66 72 62 C73.71865409 62.0935919 75.44115744 62.11744611 77.16235352 62.11352539 C78.81395226 62.11341209 78.81395226 62.11341209 80.49891663 62.11329651 C81.6968132 62.10813522 82.89470978 62.10297394 84.12890625 62.09765625 C85.34827377 62.0962413 86.5676413 62.09482635 87.82395935 62.09336853 C91.7368307 62.08774967 95.64964581 62.07519396 99.5625 62.0625 C102.20768147 62.05748743 104.85286383 62.0529241 107.49804688 62.04882812 C113.99871726 62.03777411 120.49935461 62.02101764 127 62 C127.33 61.01 127.66 60.02 128 59 C128.66 59 129.32 59 130 59 C130 59.66 130 60.32 130 61 C134.20358405 63.10179203 139.69736943 62.18585823 144.32128906 62.18530273 C146.36023992 62.18748421 148.39864525 62.20563067 150.4375 62.22460938 C151.72398437 62.22654297 153.01046875 62.22847656 154.3359375 62.23046875 C155.51720215 62.23457764 156.6984668 62.23868652 157.91552734 62.24291992 C160.92970479 62.00553615 162.37379893 61.32243112 165 60 C166.7082633 60.72272678 168.41429582 61.45400182 170.0859375 62.2578125 C174.52478507 63.97899829 179.36239428 63.08279827 183.95751953 62.48608398 C189.90628867 61.8145271 195.82593805 61.91305928 201.8046875 61.97265625 C204.26822783 61.9852891 206.73176957 61.99765102 209.1953125 62.00976562 C213.05343049 62.03468696 216.91147472 62.06281325 220.76953125 62.09594727 C224.51042162 62.12603168 228.25121529 62.14387526 231.9921875 62.16015625 C233.73119827 62.18034569 233.73119827 62.18034569 235.50534058 62.20094299 C236.57720612 62.20432175 237.64907166 62.2077005 238.75341797 62.21118164 C239.69667938 62.21863907 240.6399408 62.2260965 241.61178589 62.23377991 C244.26529795 62.16330164 244.26529795 62.16330164 247 60 C248.00496852 56.98509443 248.10335303 54.95818308 248.0625 51.8125 C248.05347656 50.91144531 248.04445312 50.01039062 248.03515625 49.08203125 C248.02355469 48.39496094 248.01195312 47.70789062 248 47 C246.68 46.34 245.36 45.68 244 45 C244 39.39 244 33.78 244 28 C244.99 27.67 245.98 27.34 247 27 C247.05406122 25.06280622 247.09282025 23.12518079 247.125 21.1875 C247.14820313 20.10855469 247.17140625 19.02960937 247.1953125 17.91796875 C247.23023717 14.80597132 247.23023717 14.80597132 245 12 C242.67116069 11.48885063 242.67116069 11.48885063 239.91796875 11.48828125 C238.32178711 11.43486572 238.32178711 11.43486572 236.69335938 11.38037109 C235.53642578 11.35797363 234.37949219 11.33557617 233.1875 11.3125 C232.00091797 11.27979004 230.81433594 11.24708008 229.59179688 11.21337891 C220.39625411 10.98625429 211.19809338 10.90451631 202 10.875 C200.74856201 10.87024658 199.49712402 10.86549316 198.20776367 10.8605957 C196.46523315 10.86385864 196.46523315 10.86385864 194.6875 10.8671875 C193.66011719 10.86831543 192.63273438 10.86944336 191.57421875 10.87060547 C188.88115188 10.89061434 188.88115188 10.89061434 186 12 C184.6581634 11.70274013 183.32503257 11.36493503 182 11 C175.07308574 10.29222484 170.73153762 11.0128434 165 15 C164.236875 14.360625 163.47375 13.72125 162.6875 13.0625 C158.83117683 10.42688345 154.95169476 10.43544271 150.390625 10.2734375 C148 10 148 10 146 8 C142.77908963 7.71739232 142.77908963 7.71739232 139.125 7.8125 C137.89007813 7.81894531 136.65515625 7.82539062 135.3828125 7.83203125 C132.69305578 7.9655873 130.56788014 8.32391562 128 9 C127.505 8.505 127.505 8.505 127 8 C124.69006618 7.87442838 122.37581464 7.82424271 120.0625 7.8125 C118.16177734 7.79123047 118.16177734 7.79123047 116.22265625 7.76953125 C112.91056001 7.65286303 112.91056001 7.65286303 111 10 C108.68432617 10.31884766 108.68432617 10.31884766 105.79296875 10.4140625 C104.73682373 10.45265381 103.68067871 10.49124512 102.5925293 10.53100586 C100.90703979 10.57753296 100.90703979 10.57753296 99.1875 10.625 C98.0528833 10.66439697 96.9182666 10.70379395 95.74926758 10.74438477 C88.94302209 10.9663965 82.1626237 11.07457323 75.35546875 10.83984375 C72.95293103 10.83859811 72.95293103 10.83859811 70.92578125 12.12890625 C70.29027344 12.41636719 69.65476563 12.70382813 69 13 C67.65111143 12.36539631 66.31962631 11.69340364 65 11 C61.96465914 10.79496781 61.96465914 10.79496781 58.625 10.9375 C38.81293642 11.18540903 38.81293642 11.18540903 33.1875 8.4375 C25.31384549 4.8866362 18.1599111 6.69645658 12.25 12.875 Z " fill="#E1DED5" transform="translate(0,0)"/>
<path d="M0 0 C0.72703125 -0.02578125 1.4540625 -0.0515625 2.203125 -0.078125 C5.05330458 0.28907605 7.24787618 1.36682652 9.84472656 2.54638672 C13.16206613 3.77147291 16.49401335 3.82550929 20 3.9375 C20.74290283 3.97238525 21.48580566 4.00727051 22.2512207 4.04321289 C26.48535554 4.22630813 30.69932955 4.25726412 34.9375 4.1875 C38.91322468 4.132955 42.05003345 4.65001447 45.75 6.25 C46.41 5.59 47.07 4.93 47.75 4.25 C50.7890625 4.0546875 50.7890625 4.0546875 54.375 4.125 C56.15777344 4.15207031 56.15777344 4.15207031 57.9765625 4.1796875 C58.89179687 4.20289063 59.80703125 4.22609375 60.75 4.25 C60.26781006 5.94189453 60.26781006 5.94189453 59.77587891 7.66796875 C58.61671406 12.32251055 58.4039495 16.78280417 58.3359375 21.5625 C58.31657135 22.41682617 58.2972052 23.27115234 58.2772522 24.15136719 C58.2179947 26.85081338 58.17128878 29.55030349 58.125 32.25 C58.08677054 34.09246539 58.04771601 35.93491386 58.0078125 37.77734375 C57.91233824 42.26808993 57.82811127 46.75891962 57.75 51.25 C54.78 51.25 51.81 51.25 48.75 51.25 C45.75 45.25 42.75 39.25 39.75 33.25 C39.75 39.19 39.75 45.13 39.75 51.25 C36.45 51.25 33.15 51.25 29.75 51.25 C29.75523682 50.20021973 29.76047363 49.15043945 29.76586914 48.06884766 C29.78394239 44.18132375 29.79544054 40.29380356 29.80493164 36.40625 C29.80996653 34.72232438 29.81679481 33.03840314 29.82543945 31.35449219 C29.83754196 28.93683797 29.84323668 26.51924144 29.84765625 24.1015625 C29.85281754 23.3463028 29.85797882 22.59104309 29.86329651 21.81289673 C29.94320188 17.90351891 29.94320188 17.90351891 28.75 14.25 C27.1 14.58 25.45 14.91 23.75 15.25 C23.86846698 19.73422272 23.99272997 24.21823642 24.12231445 28.70214844 C24.16556707 30.22684386 24.20724885 31.75158469 24.24731445 33.27636719 C24.30525203 35.47084222 24.36887795 37.66509068 24.43359375 39.859375 C24.45030624 40.5386908 24.46701874 41.21800659 24.48423767 41.91790771 C24.58772902 45.2406045 24.93633812 47.99535248 25.75 51.25 C21.79 51.25 17.83 51.25 13.75 51.25 C13.75 44.58333333 13.75 37.91666667 13.75 31.25 C13.32589844 32.20132813 12.90179688 33.15265625 12.46484375 34.1328125 C10.21449041 38.22343202 8.12524149 38.86834479 3.75 40.25 C2.43 40.25 1.11 40.25 -0.25 40.25 C-0.58 36.62 -0.91 32.99 -1.25 29.25 C-1.23839844 30.08144531 -1.22679688 30.91289063 -1.21484375 31.76953125 C-1.20582031 32.85621094 -1.19679688 33.94289062 -1.1875 35.0625 C-1.17589844 36.14144531 -1.16429688 37.22039063 -1.15234375 38.33203125 C-1.25 41.25 -1.25 41.25 -2.25 44.25 C2.2818934 44.55899273 4.30585992 44.20212007 7.75 41.25 C8.41 41.25 9.07 41.25 9.75 41.25 C9.83131463 42.68655854 9.88933559 44.1244483 9.9375 45.5625 C9.98970703 46.76326172 9.98970703 46.76326172 10.04296875 47.98828125 C9.68801608 50.72851584 8.85633718 51.54171079 6.75 53.25 C7.08 53.91 7.41 54.57 7.75 55.25 C2.89634359 56.86788547 -2.40633129 57.18894722 -7.3203125 55.56640625 C-11.67101047 53.29688631 -14.11414489 50.60081596 -16.25 46.25 C-19.6514288 34.43246453 -20.28869133 18.909587 -14.4375 7.8125 C-10.22629119 2.87936968 -6.56990385 0.13783015 0 0 Z " fill="#1D4644" transform="translate(25.25,6.75)"/>
<path d="M0 0 C1.24910156 0.01417969 2.49820313 0.02835937 3.78515625 0.04296875 C5.65494141 0.05263672 5.65494141 0.05263672 7.5625 0.0625 C10.84765625 0.23046875 10.84765625 0.23046875 13.84765625 1.23046875 C14.50765625 0.90046875 15.16765625 0.57046875 15.84765625 0.23046875 C18.22168126 0.15930493 20.59766302 0.1463779 22.97265625 0.16796875 C24.25398438 0.17699219 25.5353125 0.18601562 26.85546875 0.1953125 C28.33660156 0.21271484 28.33660156 0.21271484 29.84765625 0.23046875 C29.84765625 1.22046875 29.84765625 2.21046875 29.84765625 3.23046875 C25.88765625 3.23046875 21.92765625 3.23046875 17.84765625 3.23046875 C18.34265625 5.70546875 18.34265625 5.70546875 18.84765625 8.23046875 C18.92301836 9.70416257 18.95592819 11.18066868 18.9453125 12.65625 C18.94047852 13.85024414 18.94047852 13.85024414 18.93554688 15.06835938 C18.92297852 16.29329102 18.92297852 16.29329102 18.91015625 17.54296875 C18.90564453 18.37892578 18.90113281 19.21488281 18.89648438 20.07617188 C18.88476173 22.12763524 18.86682828 24.17906148 18.84765625 26.23046875 C16.44515472 23.82796722 15.67812056 21.69115428 14.41015625 18.54296875 C13.97445312 17.47175781 13.53875 16.40054687 13.08984375 15.296875 C12.67992187 14.28496094 12.27 13.27304687 11.84765625 12.23046875 C10.8593031 9.89188511 9.854157 7.5613126 8.84765625 5.23046875 C3.89765625 4.73546875 3.89765625 4.73546875 -1.15234375 4.23046875 C-0.65734375 6.21046875 -0.65734375 6.21046875 -0.15234375 8.23046875 C-0.04533477 11.00856574 0.01162541 13.76083193 0.015625 16.5390625 C0.0206176 17.74466576 0.0206176 17.74466576 0.02571106 18.97462463 C0.03076515 20.67163523 0.03311985 22.36865572 0.03295898 24.06567383 C0.03514553 26.65527783 0.05331725 29.24445568 0.07226562 31.83398438 C0.07519989 33.48567563 0.07718446 35.1373689 0.078125 36.7890625 C0.08531052 37.56003769 0.09249603 38.33101288 0.09989929 39.12535095 C0.08113922 43.56123287 -0.45034434 45.97547023 -2.15234375 50.23046875 C1.47765625 50.23046875 5.10765625 50.23046875 8.84765625 50.23046875 C8.51765625 49.57046875 8.18765625 48.91046875 7.84765625 48.23046875 C7.76315997 46.49002705 7.74042601 44.74637153 7.75 43.00390625 C7.75483398 41.45703125 7.75483398 41.45703125 7.75976562 39.87890625 C7.77233398 38.25855469 7.77233398 38.25855469 7.78515625 36.60546875 C7.78966797 35.5175 7.79417969 34.42953125 7.79882812 33.30859375 C7.81063849 30.61583086 7.82710847 27.92317687 7.84765625 25.23046875 C10.04140054 27.95323118 11.47716022 30.42564046 12.671875 33.70703125 C13.13110352 34.96 13.13110352 34.96 13.59960938 36.23828125 C14.06270508 37.53378906 14.06270508 37.53378906 14.53515625 38.85546875 C14.85548828 39.726875 15.17582031 40.59828125 15.50585938 41.49609375 C17.84765625 47.94726979 17.84765625 47.94726979 17.84765625 50.23046875 C20.81765625 50.23046875 23.78765625 50.23046875 26.84765625 50.23046875 C26.84765625 50.56046875 26.84765625 50.89046875 26.84765625 51.23046875 C24.20765625 51.56046875 21.56765625 51.89046875 18.84765625 52.23046875 C21.15765625 52.56046875 23.46765625 52.89046875 25.84765625 53.23046875 C25.84765625 53.56046875 25.84765625 53.89046875 25.84765625 54.23046875 C24.22274671 54.25745064 22.59770992 54.27685632 20.97265625 54.29296875 C20.06773437 54.30457031 19.1628125 54.31617188 18.23046875 54.328125 C15.84765625 54.23046875 15.84765625 54.23046875 13.84765625 53.23046875 C13.84765625 52.57046875 13.84765625 51.91046875 13.84765625 51.23046875 C13.18765625 51.23046875 12.52765625 51.23046875 11.84765625 51.23046875 C11.51765625 52.22046875 11.18765625 53.21046875 10.84765625 54.23046875 C3.06974989 54.25577965 -4.70814589 54.2733191 -12.48608398 54.28540039 C-15.13322344 54.29043575 -17.7803601 54.29726438 -20.42749023 54.3059082 C-24.22770882 54.31800854 -28.0278907 54.32370497 -31.828125 54.328125 C-33.01569901 54.33328629 -34.20327301 54.33844757 -35.42683411 54.34376526 C-37.07820625 54.34387856 -37.07820625 54.34387856 -38.76293945 54.34399414 C-39.73334671 54.34621475 -40.70375397 54.34843536 -41.7035675 54.35072327 C-44.15234375 54.23046875 -44.15234375 54.23046875 -47.15234375 53.23046875 C-48.14234375 53.72546875 -48.14234375 53.72546875 -49.15234375 54.23046875 C-51.68242341 54.34129011 -54.18415987 54.39456436 -56.71484375 54.3984375 C-57.46193604 54.4017659 -58.20902832 54.4050943 -58.97875977 54.40852356 C-60.55907576 54.41358841 -62.13940246 54.41593202 -63.71972656 54.41577148 C-66.14275618 54.41796009 -68.56533211 54.43612576 -70.98828125 54.45507812 C-72.52213385 54.45801167 -74.05598863 54.45999673 -75.58984375 54.4609375 C-76.31695557 54.46812302 -77.04406738 54.47530853 -77.79321289 54.48271179 C-82.92351572 54.45929678 -82.92351572 54.45929678 -85.15234375 52.23046875 C-85.15234375 51.57046875 -85.15234375 50.91046875 -85.15234375 50.23046875 C-83.66734375 49.73546875 -83.66734375 49.73546875 -82.15234375 49.23046875 C-81.82234375 46.26046875 -81.49234375 43.29046875 -81.15234375 40.23046875 C-82.45171875 41.25140625 -82.45171875 41.25140625 -83.77734375 42.29296875 C-87.71226106 44.55190276 -88.88527458 44.18069844 -93.15234375 43.23046875 C-93.25328679 34.81854838 -93.25337017 26.58647283 -92.15234375 18.23046875 C-91.82234375 18.23046875 -91.49234375 18.23046875 -91.15234375 18.23046875 C-90.82234375 25.16046875 -90.49234375 32.09046875 -90.15234375 39.23046875 C-88.83234375 38.57046875 -87.51234375 37.91046875 -86.15234375 37.23046875 C-83.18234375 36.73546875 -83.18234375 36.73546875 -80.15234375 36.23046875 C-80.15234375 30.62046875 -80.15234375 25.01046875 -80.15234375 19.23046875 C-79.82234375 19.23046875 -79.49234375 19.23046875 -79.15234375 19.23046875 C-78.82234375 22.86046875 -78.49234375 26.49046875 -78.15234375 30.23046875 C-77.82234375 26.60046875 -77.49234375 22.97046875 -77.15234375 19.23046875 C-76.82234375 19.23046875 -76.49234375 19.23046875 -76.15234375 19.23046875 C-76.12337553 23.6679551 -76.10555587 28.10541722 -76.08984375 32.54296875 C-76.08146484 33.80560547 -76.07308594 35.06824219 -76.06445312 36.36914062 C-76.05961914 38.18188477 -76.05961914 38.18188477 -76.0546875 40.03125 C-76.04683228 41.70441284 -76.04683228 41.70441284 -76.03881836 43.41137695 C-76.15234375 46.23046875 -76.15234375 46.23046875 -77.15234375 49.23046875 C-73.19234375 49.56046875 -69.23234375 49.89046875 -65.15234375 50.23046875 C-65.81234375 48.91046875 -66.47234375 47.59046875 -67.15234375 46.23046875 C-67.37939453 42.83886719 -67.37939453 42.83886719 -67.34765625 38.83984375 C-67.34482635 38.1352301 -67.34199646 37.43061646 -67.33908081 36.70465088 C-67.32792176 34.46308115 -67.30282568 32.22191689 -67.27734375 29.98046875 C-67.26730839 28.45703704 -67.25818351 26.93359904 -67.25 25.41015625 C-67.22799666 21.68346289 -67.19349647 17.95700542 -67.15234375 14.23046875 C-64.84234375 13.57046875 -62.53234375 12.91046875 -60.15234375 12.23046875 C-60.1276292 17.16007115 -60.10947684 22.08963749 -60.09741211 27.01928711 C-60.09238262 28.69637683 -60.08555827 30.37346217 -60.0769043 32.05053711 C-60.06477816 34.46078575 -60.0591016 36.87097643 -60.0546875 39.28125 C-60.04952621 40.03134842 -60.04436493 40.78144684 -60.03904724 41.55427551 C-60.0387059 44.71998107 -60.14347032 47.20384847 -61.15234375 50.23046875 C-57.85234375 50.23046875 -54.55234375 50.23046875 -51.15234375 50.23046875 C-51.64734375 48.25046875 -51.64734375 48.25046875 -52.15234375 46.23046875 C-52.22161343 43.47076467 -52.24651735 40.73850833 -52.21484375 37.98046875 C-52.21033203 37.23539063 -52.20582031 36.4903125 -52.20117188 35.72265625 C-52.18943621 33.89189235 -52.17150225 32.06117002 -52.15234375 30.23046875 C-49.35590757 33.65502751 -47.41230086 37.41176646 -45.46484375 41.35546875 C-45.14451172 41.98839844 -44.82417969 42.62132812 -44.49414062 43.2734375 C-42.15234375 47.97700393 -42.15234375 47.97700393 -42.15234375 50.23046875 C-39.18234375 50.23046875 -36.21234375 50.23046875 -33.15234375 50.23046875 C-33.1680542 48.4976062 -33.1680542 48.4976062 -33.18408203 46.72973633 C-33.22034654 42.43403231 -33.24326773 38.13834177 -33.26220703 33.8425293 C-33.2722499 31.98508426 -33.28588679 30.12765496 -33.30322266 28.27026367 C-33.32754636 25.59680284 -33.33884408 22.92355149 -33.34765625 20.25 C-33.35797882 19.42272903 -33.36830139 18.59545807 -33.37893677 17.74311829 C-33.37916336 16.57247078 -33.37916336 16.57247078 -33.37939453 15.37817383 C-33.38383575 14.69644608 -33.38827698 14.01471832 -33.39285278 13.31233215 C-33.15234375 11.23046875 -33.15234375 11.23046875 -31.15234375 6.23046875 C-35.11234375 6.23046875 -39.07234375 6.23046875 -43.15234375 6.23046875 C-43.15234375 5.90046875 -43.15234375 5.57046875 -43.15234375 5.23046875 C-41.77949219 5.13958984 -41.77949219 5.13958984 -40.37890625 5.046875 C-38.59613281 4.92119141 -38.59613281 4.92119141 -36.77734375 4.79296875 C-35.00230469 4.67115234 -35.00230469 4.67115234 -33.19140625 4.546875 C-30.23715474 4.41961939 -30.23715474 4.41961939 -28.15234375 3.23046875 C-26.43648903 3.10134378 -24.71624341 3.02814509 -22.99609375 2.984375 C-21.46275391 2.93506836 -21.46275391 2.93506836 -19.8984375 2.88476562 C-17.73448186 2.82357073 -15.57041233 2.7662785 -13.40625 2.71289062 C-12.38402344 2.67873047 -11.36179687 2.64457031 -10.30859375 2.609375 C-9.36822266 2.58431885 -8.42785156 2.5592627 -7.45898438 2.53344727 C-4.05492516 2.08632221 -3.67714743 0.2688373 0 0 Z " fill="#174240" transform="translate(116.15234375,7.76953125)"/>
<path d="M0 0 C0.66 0.33 1.32 0.66 2 1 C3.74837746 1.12855717 5.49890308 1.22877269 7.25 1.3125 C12.37501745 1.71657496 15.08751448 2.72197159 19 6 C19.94875 5.34 20.8975 4.68 21.875 4 C27.00711194 1.04198029 32.62597698 1.23812383 38.30078125 2.51953125 C39.14189453 2.75736328 39.14189453 2.75736328 40 3 C39.82597656 3.56203125 39.65195313 4.1240625 39.47265625 4.703125 C38.94946654 7.24556755 39.09795162 9.18452337 39.4375 11.75 C39.59025391 12.94882812 39.59025391 12.94882812 39.74609375 14.171875 C39.82988281 14.77515625 39.91367188 15.3784375 40 16 C39.113125 15.484375 38.22625 14.96875 37.3125 14.4375 C33.79309257 12.91020998 32.548875 12.78324286 29 14 C26.47375766 16.52624234 27.81445018 23.47777899 27.8125 26.875 C27.79413086 28.54755859 27.79413086 28.54755859 27.77539062 30.25390625 C27.77345703 31.32253906 27.77152344 32.39117187 27.76953125 33.4921875 C27.76542236 34.47558105 27.76131348 35.45897461 27.75708008 36.47216797 C27.82270822 39.24600742 27.82270822 39.24600742 30 42 C33.91606575 41.46599103 36.39338934 40.80330533 40 39 C40 41.97 40 44.94 40 48 C38.02 48.66 36.04 49.32 34 50 C34.99 50.99 35.98 51.98 37 53 C31.54849215 54.81716928 26.90822434 54.5519072 21.6875 52.375 C20.470625 51.92125 19.25375 51.4675 18 51 C17.01 51.66 16.02 52.32 15 53 C13.04223633 53.24291992 13.04223633 53.24291992 10.83203125 53.23046875 C10.02056641 53.22853516 9.20910156 53.22660156 8.37304688 53.22460938 C7.52806641 53.21236328 6.68308594 53.20011719 5.8125 53.1875 C4.5740332 53.1865332 4.5740332 53.1865332 3.31054688 53.18554688 C-1.8729203 53.1487847 -6.86988206 52.73963638 -12 52 C-12 51.01 -12 50.02 -12 49 C-12.60419674 47.20687119 -13.26936092 45.43396769 -13.96875 43.67578125 C-14.37480469 42.64775391 -14.78085938 41.61972656 -15.19921875 40.56054688 C-15.62847656 39.48869141 -16.05773437 38.41683594 -16.5 37.3125 C-17.14388672 35.68731445 -17.14388672 35.68731445 -17.80078125 34.02929688 C-18.86263863 31.35105659 -19.93073244 28.67529045 -21 26 C-21 33.59 -21 41.18 -21 49 C-24.63 49 -28.26 49 -32 49 C-31.67 47.35 -31.34 45.7 -31 44 C-30.91963543 42.55797552 -30.88200323 41.11295637 -30.88647461 39.66870117 C-30.88658791 38.43799141 -30.88658791 38.43799141 -30.88670349 37.18241882 C-30.89186478 36.3114003 -30.89702606 35.44038177 -30.90234375 34.54296875 C-30.9037587 33.64000565 -30.90517365 32.73704254 -30.90663147 31.80671692 C-30.91221177 28.93361037 -30.92476066 26.06058284 -30.9375 23.1875 C-30.94251755 21.23502717 -30.94708001 19.28255311 -30.95117188 17.33007812 C-30.96217475 12.55335515 -30.97942582 7.77669096 -31 3 C-27.7 3 -24.4 3 -21 3 C-19.86988348 5.2058424 -18.74584212 7.41445027 -17.625 9.625 C-17.30789062 10.24246094 -16.99078125 10.85992187 -16.6640625 11.49609375 C-16.3546875 12.10839844 -16.0453125 12.72070312 -15.7265625 13.3515625 C-15.44377441 13.90666504 -15.16098633 14.46176758 -14.86962891 15.03369141 C-13.72801711 17.61497759 -12.8925422 20.32237339 -12 23 C-12 16.07 -12 9.14 -12 2 C-8.04 2 -4.08 2 0 2 C0 1.34 0 0.68 0 0 Z " fill="#1E4745" transform="translate(146,9)"/>
<path d="M0 0 C0 0.99 0 1.98 0 3 C-7.26 3 -14.52 3 -22 3 C-21.01 5.475 -21.01 5.475 -20 8 C-19.812071 10.63260158 -19.71927902 13.15501927 -19.734375 15.78515625 C-19.73246155 16.52326035 -19.7305481 17.26136444 -19.72857666 18.02183533 C-19.72722064 19.57583967 -19.7308762 21.12985556 -19.73925781 22.68383789 C-19.74998132 25.05836446 -19.73933525 27.43213718 -19.7265625 29.80664062 C-19.7278839 31.32031416 -19.73044589 32.83398723 -19.734375 34.34765625 C-19.73032654 35.05503433 -19.72627808 35.76241241 -19.72210693 36.4912262 C-19.7598609 40.46923374 -20.16213552 42.32427103 -22 46 C-14.74 46 -7.48 46 0 46 C0 46.33 0 46.66 0 47 C-11.385 47.495 -11.385 47.495 -23 48 C-12.11 48.495 -12.11 48.495 -1 49 C-1 49.33 -1 49.66 -1 50 C-6.21443333 50.02470935 -11.42883261 50.04286444 -16.64331055 50.05493164 C-18.41740513 50.059962 -20.19149556 50.06678699 -21.96557617 50.07543945 C-24.51482161 50.08756174 -27.06401226 50.09324126 -29.61328125 50.09765625 C-30.80405022 50.10539818 -30.80405022 50.10539818 -32.01887512 50.11329651 C-35.27656286 50.11362877 -37.88681521 50.03772826 -41 49 C-41.99 49.495 -41.99 49.495 -43 50 C-45.53007966 50.11082136 -48.03181612 50.16409561 -50.5625 50.16796875 C-51.30959229 50.17129715 -52.05668457 50.17462555 -52.82641602 50.17805481 C-54.40673201 50.18311966 -55.98705871 50.18546327 -57.56738281 50.18530273 C-59.99041243 50.18749134 -62.41298836 50.20565701 -64.8359375 50.22460938 C-66.3697901 50.22754292 -67.90364488 50.22952798 -69.4375 50.23046875 C-70.16461182 50.23765427 -70.89172363 50.24483978 -71.64086914 50.25224304 C-76.77117197 50.22882803 -76.77117197 50.22882803 -79 48 C-79 47.34 -79 46.68 -79 46 C-77.515 45.505 -77.515 45.505 -76 45 C-75.67 42.03 -75.34 39.06 -75 36 C-76.299375 37.0209375 -76.299375 37.0209375 -77.625 38.0625 C-81.55991731 40.32143401 -82.73293083 39.95022969 -87 39 C-87.10094304 30.58807963 -87.10102642 22.35600408 -86 14 C-85.67 14 -85.34 14 -85 14 C-84.67 20.93 -84.34 27.86 -84 35 C-82.68 34.34 -81.36 33.68 -80 33 C-77.03 32.505 -77.03 32.505 -74 32 C-74 26.39 -74 20.78 -74 15 C-73.67 15 -73.34 15 -73 15 C-72.67 18.63 -72.34 22.26 -72 26 C-71.67 22.37 -71.34 18.74 -71 15 C-70.67 15 -70.34 15 -70 15 C-69.97103178 19.43748635 -69.95321212 23.87494847 -69.9375 28.3125 C-69.92912109 29.57513672 -69.92074219 30.83777344 -69.91210938 32.13867188 C-69.90727539 33.95141602 -69.90727539 33.95141602 -69.90234375 35.80078125 C-69.89448853 37.47394409 -69.89448853 37.47394409 -69.88647461 39.1809082 C-70 42 -70 42 -71 45 C-67.04 45.33 -63.08 45.66 -59 46 C-59.66 44.68 -60.32 43.36 -61 42 C-61.22705078 38.60839844 -61.22705078 38.60839844 -61.1953125 34.609375 C-61.1924826 33.90476135 -61.18965271 33.20014771 -61.18673706 32.47418213 C-61.17557801 30.2326124 -61.15048193 27.99144814 -61.125 25.75 C-61.11496464 24.22656829 -61.10583976 22.70313029 -61.09765625 21.1796875 C-61.07565291 17.45299414 -61.04115272 13.72653667 -61 10 C-58.69 9.34 -56.38 8.68 -54 8 C-53.97528545 12.9296024 -53.95713309 17.85916874 -53.94506836 22.78881836 C-53.94003887 24.46590808 -53.93321452 26.14299342 -53.92456055 27.82006836 C-53.91243441 30.230317 -53.90675785 32.64050768 -53.90234375 35.05078125 C-53.89718246 35.80087967 -53.89202118 36.55097809 -53.88670349 37.32380676 C-53.88636215 40.48951232 -53.99112657 42.97337972 -55 46 C-51.7 46 -48.4 46 -45 46 C-45.495 44.02 -45.495 44.02 -46 42 C-46.06926968 39.24029592 -46.0941736 36.50803958 -46.0625 33.75 C-46.05798828 33.00492188 -46.05347656 32.25984375 -46.04882812 31.4921875 C-46.03709246 29.6614236 -46.0191585 27.83070127 -46 26 C-43.20356382 29.42455876 -41.25995711 33.18129771 -39.3125 37.125 C-38.99216797 37.75792969 -38.67183594 38.39085937 -38.34179688 39.04296875 C-36 43.74653518 -36 43.74653518 -36 46 C-33.03 46 -30.06 46 -27 46 C-27.01571045 44.26713745 -27.01571045 44.26713745 -27.03173828 42.49926758 C-27.06800279 38.20356356 -27.09092398 33.90787302 -27.10986328 29.61206055 C-27.11990615 27.75461551 -27.13354304 25.89718621 -27.15087891 24.03979492 C-27.17520261 21.36633409 -27.18650033 18.69308274 -27.1953125 16.01953125 C-27.20563507 15.19226028 -27.21595764 14.36498932 -27.22659302 13.51264954 C-27.22681961 12.34200203 -27.22681961 12.34200203 -27.22705078 11.14770508 C-27.231492 10.46597733 -27.23593323 9.78424957 -27.24050903 9.0818634 C-27 7 -27 7 -25 2 C-28.96 2 -32.92 2 -37 2 C-37 1.67 -37 1.34 -37 1 C-24.69229775 -0.34615493 -12.36247682 -0.09824685 0 0 Z " fill="#16413F" transform="translate(110,12)"/>
<path d="M0 0 C3.3 0 6.6 0 10 0 C11.13011652 2.2058424 12.25415788 4.41445027 13.375 6.625 C13.69210938 7.24246094 14.00921875 7.85992188 14.3359375 8.49609375 C14.6453125 9.10839844 14.9546875 9.72070312 15.2734375 10.3515625 C15.55622559 10.90666504 15.83901367 11.46176758 16.13037109 12.03369141 C17.27198289 14.61497759 18.1074578 17.32237339 19 20 C19 13.4 19 6.8 19 0 C22.63 0 26.26 0 30 0 C29.34 1.32 28.68 2.64 28 4 C27.67831114 6.09563936 27.67831114 6.09563936 27.68115234 8.30957031 C27.66128265 9.15013977 27.64141296 9.99070923 27.62094116 10.85675049 C27.60361435 12.20383087 27.60361435 12.20383087 27.5859375 13.578125 C27.56657135 14.5046991 27.5472052 15.43127319 27.5272522 16.38592529 C27.46755233 19.34052371 27.42110932 22.29516129 27.375 25.25 C27.3368114 27.25522517 27.29775915 29.26043409 27.2578125 31.265625 C27.1618586 36.17695111 27.07779197 41.088354 27 46 C24.36 46 21.72 46 19 46 C14.545 34.615 14.545 34.615 10 23 C10 30.59 10 38.18 10 46 C6.37 46 2.74 46 -1 46 C-0.67 44.35 -0.34 42.7 0 41 C0.08036457 39.55797552 0.11799677 38.11295637 0.11352539 36.66870117 C0.11341209 35.43799141 0.11341209 35.43799141 0.11329651 34.18241882 C0.10813522 33.3114003 0.10297394 32.44038177 0.09765625 31.54296875 C0.0962413 30.64000565 0.09482635 29.73704254 0.09336853 28.80671692 C0.08778823 25.93361037 0.07523934 23.06058284 0.0625 20.1875 C0.05748245 18.23502717 0.05291999 16.28255311 0.04882812 14.33007812 C0.03782525 9.55335515 0.02057418 4.77669096 0 0 Z " fill="#EADDC0" transform="translate(115,12)"/>
<path d="M0 0 C3.95819611 -0.08678303 7.91614934 -0.14031733 11.875 -0.1875 C13.00292969 -0.21263672 14.13085938 -0.23777344 15.29296875 -0.26367188 C16.90751953 -0.27817383 16.90751953 -0.27817383 18.5546875 -0.29296875 C20.04718018 -0.31653442 20.04718018 -0.31653442 21.56982422 -0.34057617 C22.37178223 -0.22818604 23.17374023 -0.1157959 24 0 C26.35119399 3.52679099 26.21443452 5.02879485 26.125 9.1875 C26.10695312 10.27417969 26.08890625 11.36085938 26.0703125 12.48046875 C26.04710937 13.31191406 26.02390625 14.14335937 26 15 C25.01 15.33 24.02 15.66 23 16 C23 21.61 23 27.22 23 33 C24.32 33.66 25.64 34.32 27 35 C27.05437607 36.58294782 27.09296271 38.16644256 27.125 39.75 C27.14820313 40.63171875 27.17140625 41.5134375 27.1953125 42.421875 C26.98870725 45.14906426 26.47305841 46.71315408 25 49 C22.45418502 50.27290749 20.64827922 50.12943325 17.80078125 50.1328125 C16.75599609 50.13410156 15.71121094 50.13539062 14.63476562 50.13671875 C12.99024414 50.13091797 12.99024414 50.13091797 11.3125 50.125 C10.23548828 50.12886719 9.15847656 50.13273437 8.04882812 50.13671875 C2.59293747 50.13002851 -2.62712557 49.96850097 -8 49 C-8 48.67 -8 48.34 -8 48 C-14.08408472 47.80185739 -14.08408472 47.80185739 -20 49 C-20 48.34 -20 47.68 -20 47 C-23.63 47 -27.26 47 -31 47 C-31 46.67 -31 46.34 -31 46 C-27.04 46 -23.08 46 -19 46 C-19.495 44.515 -19.495 44.515 -20 43 C-20.07051114 40.26134713 -20.09357765 37.54972412 -20.0625 34.8125 C-20.05798828 34.06291016 -20.05347656 33.31332031 -20.04882812 32.54101562 C-20.03706354 30.69397617 -20.01912865 28.84697787 -20 27 C-18.02 27 -16.04 27 -14 27 C-13.97294692 29.41674224 -13.95313562 31.8331794 -13.9375 34.25 C-13.92912109 34.93191406 -13.92074219 35.61382812 -13.91210938 36.31640625 C-13.89518586 39.8026497 -14.1466503 42.58660119 -15 46 C-11.04 46 -7.08 46 -3 46 C-3.66 44.68 -4.32 43.36 -5 42 C-5.17985407 39.37648041 -5.25674435 36.86330242 -5.23046875 34.2421875 C-5.23001053 33.49792511 -5.22955231 32.75366272 -5.2290802 31.98684692 C-5.22606649 30.41846109 -5.21820658 28.85007802 -5.20581055 27.28173828 C-5.18751157 24.8765203 -5.18530129 22.47168671 -5.18554688 20.06640625 C-5.18063287 18.54166333 -5.17480506 17.01692302 -5.16796875 15.4921875 C-5.16685593 14.77134979 -5.1657431 14.05051208 -5.16459656 13.30783081 C-5.11609488 8.23218976 -5.11609488 8.23218976 -4 6 C-3.34 6 -2.68 6 -2 6 C-1.67 5.34 -1.34 4.68 -1 4 C1.44625289 7.66937933 1.36449732 10.55442785 1.44921875 14.80859375 C1.47095657 15.57172379 1.4926944 16.33485382 1.51509094 17.12110901 C1.55897283 18.73402342 1.59818067 20.3470708 1.63305664 21.96020508 C1.68722717 24.42508577 1.75745824 26.88911674 1.83007812 29.35351562 C1.87074634 30.92185054 1.91049054 32.49020973 1.94921875 34.05859375 C1.96997971 34.79411972 1.99074066 35.52964569 2.01213074 36.28746033 C2.08162344 39.80639758 1.86262639 42.54949444 1 46 C7.93 46 14.86 46 22 46 C22.33 43.03 22.66 40.06 23 37 C21.948125 37.495 20.89625 37.99 19.8125 38.5 C16.42819297 40.09261507 15.13082792 40 11 40 C11 35.71 11 31.42 11 27 C16 27 16 27 19 29 C19 25.7 19 22.4 19 19 C15.04 19.495 15.04 19.495 11 20 C11 16.7 11 13.4 11 10 C19.625 10.875 19.625 10.875 23 12 C22.34 9.36 21.68 6.72 21 4 C14.4 3.67 7.8 3.34 1 3 C0.67 2.01 0.34 1.02 0 0 Z " fill="#1C4744" transform="translate(221,12)"/>
<path d="M0 0 C3.63 0 7.26 0 11 0 C13.64 6.27 16.28 12.54 19 19 C19.020625 16.23625 19.04125 13.4725 19.0625 10.625 C19.071604 9.75568848 19.08070801 8.88637695 19.09008789 7.99072266 C19.2142327 3.8643644 19.2142327 3.8643644 18 0 C21.96 0 25.92 0 30 0 C29.67 0.99 29.34 1.98 29 3 C28.84565842 5.94717173 28.7424397 8.87498865 28.68359375 11.82421875 C28.66281265 12.68561966 28.64203156 13.54702057 28.62062073 14.43452454 C28.55525091 17.18543544 28.49629868 19.93644156 28.4375 22.6875 C28.39430283 24.55274421 28.35068815 26.4179788 28.30664062 28.28320312 C28.19958237 32.85537124 28.09827946 37.4276351 28 42 C25.03 42 22.06 42 19 42 C16 36 13 30 10 24 C10 29.94 10 35.88 10 42 C6.7 42 3.4 42 0 42 C0 28.14 0 14.28 0 0 Z " fill="#E9DDBF" transform="translate(55,16)"/>
<path d="M0 0 C3.96 0 7.92 0 12 0 C11.67 5.28 11.34 10.56 11 16 C12.98 16 14.96 16 17 16 C16.85890014 13.89551062 16.71195825 11.7914123 16.5625 9.6875 C16.48128906 8.51574219 16.40007812 7.34398437 16.31640625 6.13671875 C16.1132629 2.97409042 16.1132629 2.97409042 15 0 C18.96 0 22.92 0 27 0 C26.99476318 1.13018555 26.98952637 2.26037109 26.98413086 3.42480469 C26.96601774 7.62173672 26.95454488 11.81866531 26.94506836 16.015625 C26.94004259 17.83138612 26.93322097 19.6471432 26.92456055 21.46289062 C26.91241811 24.0742289 26.90675409 26.68551362 26.90234375 29.296875 C26.89718246 30.10743347 26.89202118 30.91799194 26.88670349 31.75311279 C26.88634033 35.40965772 27.10692333 38.42769332 28 42 C24.04 42 20.08 42 16 42 C16.33 35.73 16.66 29.46 17 23 C15.02 23 13.04 23 11 23 C11.33 29.27 11.66 35.54 12 42 C8.04 42 4.08 42 0 42 C0 28.14 0 14.28 0 0 Z " fill="#E4D9BD" transform="translate(190,16)"/>
<path d="M0 0 C6.93 0 13.86 0 21 0 C22.35439668 2.70879335 22.06501451 5.00933268 22 8 C21.30132812 7.9278125 20.60265625 7.855625 19.8828125 7.78125 C18.97273438 7.6884375 18.06265625 7.595625 17.125 7.5 C16.22007813 7.4071875 15.31515625 7.314375 14.3828125 7.21875 C12.06686789 6.96952705 12.06686789 6.96952705 10 7 C10.33 9.64 10.66 12.28 11 15 C13.64 15 16.28 15 19 15 C19 18.63 19 22.26 19 26 C18.01 25.34 17.02 24.68 16 24 C14.0103005 23.60986284 12.00980131 23.26797351 10 23 C10.33 26.96 10.66 30.92 11 35 C14.68266103 34.40049704 18.34543185 33.75241109 22 33 C21.125 40.875 21.125 40.875 20 42 C18.43827255 42.08685603 16.87270656 42.10702219 15.30859375 42.09765625 C14.36435547 42.09443359 13.42011719 42.09121094 12.44726562 42.08789062 C11.45404297 42.07951172 10.46082031 42.07113281 9.4375 42.0625 C8.44041016 42.05798828 7.44332031 42.05347656 6.41601562 42.04882812 C3.94395151 42.03700007 1.47200482 42.02051849 -1 42 C-0.75601219 41.13196747 -0.75601219 41.13196747 -0.50709534 40.24639893 C0.30825962 36.6344302 0.12111581 32.98110114 0.09765625 29.296875 C0.09553383 28.04019012 0.09553383 28.04019012 0.09336853 26.75811768 C0.08778197 24.08870843 0.07523194 21.4193838 0.0625 18.75 C0.05748326 16.93750121 0.05292066 15.12500111 0.04882812 13.3125 C0.03866888 8.87494136 0.01909086 4.43756514 0 0 Z " fill="#EEE1C3" transform="translate(89,16)"/>
<path d="M0 0 C0.86625 -0.00515625 1.7325 -0.0103125 2.625 -0.015625 C5 0.25 5 0.25 8 2.25 C8.51171875 4.6328125 8.51171875 4.6328125 8.6875 7.375 C8.78611328 8.74011719 8.78611328 8.74011719 8.88671875 10.1328125 C8.92410156 10.83148438 8.96148437 11.53015625 9 12.25 C5.125 10.375 5.125 10.375 4 9.25 C1.58462162 8.83282721 1.58462162 8.83282721 -1 9.25 C-3.98928751 12.30206522 -4.38373738 14.59107319 -4.3984375 18.78515625 C-4.40230469 19.84154297 -4.40617187 20.89792969 -4.41015625 21.98632812 C-4.39855469 23.08396484 -4.38695312 24.18160156 -4.375 25.3125 C-4.38660156 26.41400391 -4.39820313 27.51550781 -4.41015625 28.65039062 C-4.40628906 29.70548828 -4.40242188 30.76058594 -4.3984375 31.84765625 C-4.39505371 32.81195557 -4.39166992 33.77625488 -4.38818359 34.76977539 C-4.18677449 37.28748377 -4.18677449 37.28748377 -2.65869141 39.09936523 C-0.93268162 40.55105428 -0.93268162 40.55105428 1.9375 40.0625 C4.57849277 39.36182845 6.60409509 38.50746197 9 37.25 C9.02689216 38.72906892 9.04634621 40.20827483 9.0625 41.6875 C9.07410156 42.51121094 9.08570312 43.33492187 9.09765625 44.18359375 C9 46.25 9 46.25 8 47.25 C-5.3269699 48.32674856 -5.3269699 48.32674856 -9.75 45.5 C-14.8662502 40.3837498 -15.11021954 34.54377023 -15.19067383 27.48974609 C-15.16271744 9.41271744 -15.16271744 9.41271744 -8 2.25 C-4.76085771 0.09057181 -3.75140267 -0.02232978 0 0 Z " fill="#EBDEC0" transform="translate(26,10.75)"/>
<path d="M0 0 C6.93 0 13.86 0 21 0 C21.33 2.64 21.66 5.28 22 8 C16.06 7.01 16.06 7.01 10 6 C10 9.3 10 12.6 10 16 C12.64 15.67 15.28 15.34 18 15 C18 18.3 18 21.6 18 25 C15.36 24.34 12.72 23.68 10 23 C10 27.29 10 31.58 10 36 C11.423125 35.505 12.84625 35.01 14.3125 34.5 C17.13135886 33.51952735 18.98509443 33 22 33 C21.67 35.97 21.34 38.94 21 42 C14.07 42 7.14 42 0 42 C0.495 39.03 0.495 39.03 1 36 C1.08954171 33.68881017 1.1306151 31.37542268 1.1328125 29.0625 C1.13410156 27.75539063 1.13539063 26.44828125 1.13671875 25.1015625 C1.13462402 24.42770508 1.1325293 23.75384766 1.13037109 23.05957031 C1.12501508 21.00578426 1.13033445 18.95221685 1.13671875 16.8984375 C1.13542969 15.59132813 1.13414062 14.28421875 1.1328125 12.9375 C1.13168457 11.75027344 1.13055664 10.56304687 1.12939453 9.33984375 C1.05233216 5.53644509 1.05233216 5.53644509 0 0 Z " fill="#EDE1C4" transform="translate(222,16)"/>
<path d="M0 0 C0.33 2.97 0.66 5.94 1 9 C0.113125 8.484375 -0.77375 7.96875 -1.6875 7.4375 C-5.20690743 5.91020998 -6.451125 5.78324286 -10 7 C-12.52624234 9.52624234 -11.18554982 16.47777899 -11.1875 19.875 C-11.19974609 20.99003906 -11.21199219 22.10507812 -11.22460938 23.25390625 C-11.22654297 24.32253906 -11.22847656 25.39117187 -11.23046875 26.4921875 C-11.23663208 27.96727783 -11.23663208 27.96727783 -11.24291992 29.47216797 C-11.17729178 32.24600742 -11.17729178 32.24600742 -9 35 C-5.08393425 34.46599103 -2.60661066 33.80330533 1 32 C1 34.97 1 37.94 1 41 C-3.9047807 42.6349269 -8.88173109 42.49799373 -14 42 C-18.24181678 39.70941894 -19.50451499 37.46544876 -21 33 C-21.43150551 29.04973025 -21.37022068 25.09661546 -21.375 21.125 C-21.39949219 20.06152344 -21.42398438 18.99804688 -21.44921875 17.90234375 C-21.47355746 11.37145697 -20.96216437 7.27090105 -17 2 C-11.40290753 -1.85577481 -6.42034225 -1.60508556 0 0 Z " fill="#ECE0C3" transform="translate(185,16)"/>
<path d="M0 0 C3.96 0 7.92 0 12 0 C11.99476318 1.13018555 11.98952637 2.26037109 11.98413086 3.42480469 C11.96601774 7.62173672 11.95454488 11.81866531 11.94506836 16.015625 C11.94004259 17.83138612 11.93322097 19.6471432 11.92456055 21.46289062 C11.91241811 24.0742289 11.90675409 26.68551362 11.90234375 29.296875 C11.89718246 30.10743347 11.89202118 30.91799194 11.88670349 31.75311279 C11.88634033 35.40965772 12.10692333 38.42769332 13 42 C9.04 42 5.08 42 1 42 C1.33 35.73 1.66 29.46 2 23 C0.02 23 -1.96 23 -4 23 C-3.01 21.35 -2.02 19.7 -1 18 C-1.99 17.34 -2.98 16.68 -4 16 C-2.02 16 -0.04 16 2 16 C1.85890014 13.89551062 1.71195825 11.7914123 1.5625 9.6875 C1.48128906 8.51574219 1.40007812 7.34398437 1.31640625 6.13671875 C1.1132629 2.97409042 1.1132629 2.97409042 0 0 Z " fill="#ECE0C2" transform="translate(205,16)"/>
<path d="M0 0 C3.96 0 7.92 0 12 0 C11.83757812 1.19109375 11.67515625 2.3821875 11.5078125 3.609375 C10.78333735 10.14757122 10.85446674 16.67935716 10.875 23.25 C10.87113281 24.50296875 10.86726562 25.7559375 10.86328125 27.046875 C10.86521484 28.85671875 10.86521484 28.85671875 10.8671875 30.703125 C10.86831543 31.79270508 10.86944336 32.88228516 10.87060547 34.00488281 C10.93869049 37.35909571 10.93869049 37.35909571 12 42 C7.71 42 3.42 42 -1 42 C-0.67 41.01 -0.34 40.02 0 39 C0.085409 36.05035887 0.11582927 33.12496981 0.09765625 30.17578125 C0.0962413 29.31438034 0.09482635 28.45297943 0.09336853 27.56547546 C0.0877714 24.81444831 0.07521946 22.06350256 0.0625 19.3125 C0.05748463 17.4472668 0.05292179 15.58203233 0.04882812 13.71679688 C0.03780292 9.14449989 0.02054027 4.57226375 0 0 Z " fill="#EADDC0" transform="translate(148,16)"/>
<path d="M0 0 C3.96 0 7.92 0 12 0 C11.67 0.99 11.34 1.98 11 3 C10.90315486 5.6120778 10.86001891 8.19664166 10.8671875 10.80859375 C10.86623077 11.57172379 10.86527405 12.33485382 10.86428833 13.12110901 C10.86360826 14.73414187 10.86545049 16.34717748 10.86962891 17.96020508 C10.87497226 20.42470479 10.86968189 22.88902164 10.86328125 25.35351562 C10.86394221 26.9218754 10.86522373 28.49023506 10.8671875 30.05859375 C10.86516327 30.79411972 10.86313904 31.52964569 10.86105347 32.28746033 C10.87694447 35.7696964 11.14785836 38.59143344 12 42 C8.04 42 4.08 42 0 42 C0 28 0 14 0 0 Z " fill="#EDE0C3" transform="translate(39,16)"/>
<path d="M0 0 C0.66 0 1.32 0 2 0 C2 0.66 2 1.32 2 2 C4.64 2.66 7.28 3.32 10 4 C10.33 7.63 10.66 11.26 11 15 C11.66 14.67 12.32 14.34 13 14 C13.19600577 16.22843488 13.38146569 18.45779893 13.5625 20.6875 C13.66691406 21.92886719 13.77132812 23.17023437 13.87890625 24.44921875 C14 28 14 28 13 33 C16.63 33 20.26 33 24 33 C24 33.66 24 34.32 24 35 C24.66 34.34 25.32 33.68 26 33 C28.74485593 32.85492305 31.38480543 32.81347577 34.125 32.875 C34.87910156 32.88402344 35.63320312 32.89304688 36.41015625 32.90234375 C38.27357254 32.9259313 40.13682593 32.96180281 42 33 C42.33 33.99 42.66 34.98 43 36 C37.78557724 36.0494186 32.57129066 36.08572831 27.35668945 36.10986328 C25.58257676 36.11992411 23.80848065 36.13357422 22.03442383 36.15087891 C19.48514716 36.17512378 16.93608963 36.18648218 14.38671875 36.1953125 C13.19594978 36.21079636 13.19594978 36.21079636 11.98112488 36.22659302 C8.11776957 36.2273811 6.29160554 36.19440369 3 34 C1.0103005 33.60986284 -0.99019869 33.26797351 -3 33 C-3 32.67 -3 32.34 -3 32 C0.96 31.67 4.92 31.34 9 31 C9 28.03 9 25.06 9 22 C7.63875 22.99 7.63875 22.99 6.25 24 C3 26 3 26 -1 26 C-0.67 25.01 -0.34 24.02 0 23 C0.08209792 21.22686149 0.10746294 19.45079225 0.09765625 17.67578125 C0.09443359 16.64775391 0.09121094 15.61972656 0.08789062 14.56054688 C0.07951172 13.48869141 0.07113281 12.41683594 0.0625 11.3125 C0.05798828 10.22904297 0.05347656 9.14558594 0.04882812 8.02929688 C0.03703743 5.35280915 0.02058063 2.67643223 0 0 Z " fill="#1C4845" transform="translate(177,26)"/>
<path d="M0 0 C0.66 0.33 1.32 0.66 2 1 C3.87056791 1.2275015 5.74685958 1.40962811 7.625 1.5625 C8.62789062 1.64628906 9.63078125 1.73007813 10.6640625 1.81640625 C11.43492187 1.87699219 12.20578125 1.93757812 13 2 C13.33 3.65 13.66 5.3 14 7 C10.04 7 6.08 7 2 7 C2.33 7.66 2.66 8.32 3 9 C3.09907062 11.70145008 3.13982196 14.3765198 3.1328125 17.078125 C3.13376923 17.88231873 3.13472595 18.68651245 3.13571167 19.51507568 C3.13639294 21.21984943 3.13454237 22.92462576 3.13037109 24.62939453 C3.12504991 27.22564621 3.13030339 29.82172267 3.13671875 32.41796875 C3.13605741 34.07552121 3.1347751 35.73307357 3.1328125 37.390625 C3.13483673 38.16271301 3.13686096 38.93480103 3.13894653 39.73028564 C3.12090813 43.92983352 2.82633212 47.86259528 2 52 C-3.02296004 53.13016601 -6.97874074 52.77916092 -12 52 C-11.67 51.34 -11.34 50.68 -11 50 C-8.67843403 49.59270772 -6.3431213 49.25561323 -4 49 C-4.01047363 47.74340576 -4.02094727 46.48681152 -4.03173828 45.19213867 C-4.06790817 40.53494103 -4.09088953 35.87775584 -4.10986328 31.22045898 C-4.11992773 29.20383619 -4.13358047 27.18722801 -4.15087891 25.1706543 C-4.17510769 22.27388911 -4.18647859 19.37731669 -4.1953125 16.48046875 C-4.20563507 15.57725388 -4.21595764 14.674039 -4.22659302 13.74345398 C-4.22674408 12.90280899 -4.22689514 12.062164 -4.22705078 11.19604492 C-4.231492 10.45658127 -4.23593323 9.71711761 -4.24050903 8.95524597 C-4 7 -4 7 -2 4 C-5.3 3.67 -8.6 3.34 -12 3 C-12 2.67 -12 2.34 -12 2 C-8.04 2 -4.08 2 0 2 C0 1.34 0 0.68 0 0 Z " fill="#254B49" transform="translate(146,9)"/>
<path d="M0 0 C1.32 0.66 2.64 1.32 4 2 C4 13.55 4 25.1 4 37 C3.67 37 3.34 37 3 37 C2.67 33.04 2.34 29.08 2 25 C1.34 25.66 0.68 26.32 0 27 C0 22.71 0 18.42 0 14 C-1.65 14 -3.3 14 -5 14 C-5.99 13.34 -6.98 12.68 -8 12 C-8 11.34 -8 10.68 -8 10 C-8.66 10 -9.32 10 -10 10 C-9.67 17.92 -9.34 25.84 -9 34 C-10.485 34.495 -10.485 34.495 -12 35 C-15.11496916 30.32754625 -14.32850857 25.49414246 -14.3125 20 C-14.32861328 18.89398438 -14.34472656 17.78796875 -14.36132812 16.6484375 C-14.36197266 15.58882812 -14.36261719 14.52921875 -14.36328125 13.4375 C-14.36626221 12.46683594 -14.36924316 11.49617188 -14.37231445 10.49609375 C-14 8 -14 8 -12.66479492 6.1484375 C-11 5 -11 5 -8 5.1875 C-5 6 -5 6 -2 8 C-1.34 5.36 -0.68 2.72 0 0 Z " fill="#194240" transform="translate(187,16)"/>
<path d="M0 0 C3.95819611 -0.08678303 7.91614934 -0.14031733 11.875 -0.1875 C13.00292969 -0.21263672 14.13085938 -0.23777344 15.29296875 -0.26367188 C16.36933594 -0.27333984 17.44570312 -0.28300781 18.5546875 -0.29296875 C20.04718018 -0.31653442 20.04718018 -0.31653442 21.56982422 -0.34057617 C22.37178223 -0.22818604 23.17374023 -0.1157959 24 0 C26.35119399 3.52679099 26.21443452 5.02879485 26.125 9.1875 C26.10695312 10.27417969 26.08890625 11.36085938 26.0703125 12.48046875 C26.04710937 13.31191406 26.02390625 14.14335937 26 15 C25.01 15.33 24.02 15.66 23 16 C23 21.28 23 26.56 23 32 C22.01 31.34 21.02 30.68 20 30 C19.70703125 27.1796875 19.70703125 27.1796875 19.8125 23.875 C19.83957031 22.77929688 19.86664063 21.68359375 19.89453125 20.5546875 C19.92933594 19.71164063 19.96414062 18.86859375 20 18 C19.443125 18.33 18.88625 18.66 18.3125 19 C16 20 16 20 11 20 C11 16.7 11 13.4 11 10 C19.625 10.875 19.625 10.875 23 12 C22.34 9.36 21.68 6.72 21 4 C14.4 3.67 7.8 3.34 1 3 C0.67 2.01 0.34 1.02 0 0 Z " fill="#163E3C" transform="translate(221,12)"/>
<path d="M0 0 C3.3 0.99 6.6 1.98 10 3 C10 8.61 10 14.22 10 20 C3 23 3 23 -1 23 C-1.02902429 19.72918529 -1.04680684 16.4584037 -1.0625 13.1875 C-1.07087891 12.25873047 -1.07925781 11.32996094 -1.08789062 10.37304688 C-1.09111328 9.48037109 -1.09433594 8.58769531 -1.09765625 7.66796875 C-1.10289307 6.84578857 -1.10812988 6.0236084 -1.11352539 5.17651367 C-1 3 -1 3 0 0 Z " fill="#D9D8CF" transform="translate(26,24)"/>
<path d="M0 0 C11.52164009 -0.3690205 11.52164009 -0.3690205 17 2 C17.66 1.34 18.32 0.68 19 0 C22.0390625 -0.1953125 22.0390625 -0.1953125 25.625 -0.125 C27.40777344 -0.09792969 27.40777344 -0.09792969 29.2265625 -0.0703125 C30.14179687 -0.04710937 31.05703125 -0.02390625 32 0 C31.67 1.65 31.34 3.3 31 5 C27.37 5.33 23.74 5.66 20 6 C20.33 6.33 20.66 6.66 21 7 C21.08651611 8.41570123 21.10704904 9.835595 21.09765625 11.25390625 C21.09443359 12.10791016 21.09121094 12.96191406 21.08789062 13.84179688 C21.07951172 14.73962891 21.07113281 15.63746094 21.0625 16.5625 C21.05798828 17.46419922 21.05347656 18.36589844 21.04882812 19.29492188 C21.03700225 21.53001314 21.0205222 23.76497437 21 26 C18.16566697 23.16566697 16.94418643 19.68885156 15.375 16.0625 C14.88773438 14.96905273 14.88773438 14.96905273 14.390625 13.85351562 C12 8.37416295 12 8.37416295 12 5 C6.06 5.495 6.06 5.495 0 6 C0 5.34 0 4.68 0 4 C3.96 4 7.92 4 12 4 C12 3.34 12 2.68 12 2 C8.04 1.67 4.08 1.34 0 1 C0 0.67 0 0.34 0 0 Z " fill="#274A48" transform="translate(54,11)"/>
<path d="M0 0 C1.98 0 3.96 0 6 0 C6.02705308 2.41674224 6.04686438 4.8331794 6.0625 7.25 C6.07087891 7.93191406 6.07925781 8.61382812 6.08789062 9.31640625 C6.10481414 12.8026497 5.8533497 15.58660119 5 19 C8.96 19 12.92 19 17 19 C17.33 18.34 17.66 17.68 18 17 C18 17.66 18 18.32 18 19 C25.92 19 33.84 19 42 19 C42 19.33 42 19.66 42 20 C35.07 20 28.14 20 21 20 C21 20.66 21 21.32 21 22 C24.96 22 28.92 22 33 22 C33 22.33 33 22.66 33 23 C18.21867882 23.18451025 18.21867882 23.18451025 12 22 C12 21.67 12 21.34 12 21 C5.91591528 20.80185739 5.91591528 20.80185739 0 22 C0 21.34 0 20.68 0 20 C-3.63 20 -7.26 20 -11 20 C-11 19.67 -11 19.34 -11 19 C-7.04 19 -3.08 19 1 19 C0.67 18.01 0.34 17.02 0 16 C-0.07051114 13.26134713 -0.09357765 10.54972412 -0.0625 7.8125 C-0.05798828 7.06291016 -0.05347656 6.31332031 -0.04882812 5.54101562 C-0.03706354 3.69397617 -0.01912865 1.84697787 0 0 Z " fill="#174240" transform="translate(201,39)"/>
<path d="M0 0 C0.66 0 1.32 0 2 0 C2 0.66 2 1.32 2 2 C5.96 2.99 5.96 2.99 10 4 C10 8.29 10 12.58 10 17 C8.02 17.66 6.04 18.32 4 19 C3.01 19.66 2.02 20.32 1 21 C0.21311555 18.22276075 -0.11949924 15.77389923 -0.09765625 12.890625 C-0.09443359 12.13652344 -0.09121094 11.38242187 -0.08789062 10.60546875 C-0.07951172 9.82816406 -0.07113281 9.05085938 -0.0625 8.25 C-0.05798828 7.45722656 -0.05347656 6.66445313 -0.04882812 5.84765625 C-0.03708565 3.89840492 -0.01915146 1.94919262 0 0 Z " fill="#DEDDD3" transform="translate(177,26)"/>
<path d="M0 0 C0 0.66 0 1.32 0 2 C-4.29 2 -8.58 2 -13 2 C-12.34 3.32 -11.68 4.64 -11 6 C-10.8046875 9.234375 -10.8046875 9.234375 -10.875 12.75 C-10.89304688 13.92046875 -10.91109375 15.0909375 -10.9296875 16.296875 C-10.95289063 17.18890625 -10.97609375 18.0809375 -11 19 C-12.98 19 -14.96 19 -17 19 C-17.02691685 16.54159395 -17.04679802 14.08348118 -17.0625 11.625 C-17.07087891 10.92632812 -17.07925781 10.22765625 -17.08789062 9.5078125 C-17.11328125 4.2265625 -17.11328125 4.2265625 -16 2 C-19.96 2 -23.92 2 -28 2 C-28 1.67 -28 1.34 -28 1 C-18.62895894 0.11504503 -9.40228594 -0.1170409 0 0 Z " fill="#14413F" transform="translate(218,13)"/>
<path d="M0 0 C0 0.99 0 1.98 0 3 C-7.26 3 -14.52 3 -22 3 C-22.33 3.99 -22.66 4.98 -23 6 C-23.66 6.66 -24.32 7.32 -25 8 C-25.24581843 10.86436824 -25.37369381 13.6390314 -25.4140625 16.5078125 C-25.43342865 17.34843231 -25.4527948 18.18905212 -25.4727478 19.05514526 C-25.53261658 21.74499303 -25.57895771 24.43488343 -25.625 27.125 C-25.6631731 28.94663344 -25.70222444 30.7682487 -25.7421875 32.58984375 C-25.83832398 37.05974852 -25.92232769 41.52973779 -26 46 C-26.33 46 -26.66 46 -27 46 C-27.04952523 40.53736689 -27.08577896 35.07486518 -27.10986328 29.61206055 C-27.11990615 27.75461551 -27.13354304 25.89718621 -27.15087891 24.03979492 C-27.17520261 21.36633409 -27.18650033 18.69308274 -27.1953125 16.01953125 C-27.20563507 15.19226028 -27.21595764 14.36498932 -27.22659302 13.51264954 C-27.22674408 12.73221786 -27.22689514 11.95178619 -27.22705078 11.14770508 C-27.231492 10.46597733 -27.23593323 9.78424957 -27.24050903 9.0818634 C-27 7 -27 7 -25 2 C-28.96 2 -32.92 2 -37 2 C-37 1.67 -37 1.34 -37 1 C-24.69229775 -0.34615493 -12.36247682 -0.09824685 0 0 Z " fill="#0C3A39" transform="translate(110,12)"/>
<path d="M0 0 C2.56634861 0.22718496 5.11678107 0.41608184 7.6875 0.5625 C8.38939453 0.60568359 9.09128906 0.64886719 9.81445312 0.69335938 C11.54275206 0.7991736 13.2713511 0.90006581 15 1 C15 1.66 15 2.32 15 3 C15.66 2.34 16.32 1.68 17 1 C19.74485593 0.85492305 22.38480543 0.81347577 25.125 0.875 C25.87910156 0.88402344 26.63320312 0.89304688 27.41015625 0.90234375 C29.27357254 0.9259313 31.13682593 0.96180281 33 1 C33.495 2.485 33.495 2.485 34 4 C28.78557724 4.0494186 23.57129066 4.08572831 18.35668945 4.10986328 C16.58257676 4.11992411 14.80848065 4.13357422 13.03442383 4.15087891 C10.48514716 4.17512378 7.93608963 4.18648218 5.38671875 4.1953125 C4.19594978 4.21079636 4.19594978 4.21079636 2.98112488 4.22659302 C-0.88223043 4.2273811 -2.70839446 4.19440369 -6 2 C-7.9896995 1.60986284 -9.99019869 1.26797351 -12 1 C-12 0.67 -12 0.34 -12 0 C-10.56359829 -0.19573608 -9.12580496 -0.38127816 -7.6875 -0.5625 C-6.88699219 -0.66691406 -6.08648437 -0.77132812 -5.26171875 -0.87890625 C-3 -1 -3 -1 0 0 Z " fill="#214947" transform="translate(186,58)"/>
<path d="M0 0 C1.77503906 0.03480469 1.77503906 0.03480469 3.5859375 0.0703125 C5.36871094 0.09738281 5.36871094 0.09738281 7.1875 0.125 C8.10273437 0.14820313 9.01796875 0.17140625 9.9609375 0.1953125 C9.9609375 0.5253125 9.9609375 0.8553125 9.9609375 1.1953125 C5.5059375 1.6903125 5.5059375 1.6903125 0.9609375 2.1953125 C3.6009375 2.5253125 6.2409375 2.8553125 8.9609375 3.1953125 C8.9609375 3.5253125 8.9609375 3.8553125 8.9609375 4.1953125 C5.6609375 4.1953125 2.3609375 4.1953125 -1.0390625 4.1953125 C-1.0390625 5.1853125 -1.0390625 6.1753125 -1.0390625 7.1953125 C-1.6990625 7.1953125 -2.3590625 7.1953125 -3.0390625 7.1953125 C-3.3690625 10.1653125 -3.6990625 13.1353125 -4.0390625 16.1953125 C-4.3690625 16.1953125 -4.6990625 16.1953125 -5.0390625 16.1953125 C-5.3690625 13.5553125 -5.6990625 10.9153125 -6.0390625 8.1953125 C-16.9290625 8.6903125 -16.9290625 8.6903125 -28.0390625 9.1953125 C-28.0390625 8.5353125 -28.0390625 7.8753125 -28.0390625 7.1953125 C-20.7790625 7.1953125 -13.5190625 7.1953125 -6.0390625 7.1953125 C-6.0390625 6.2053125 -6.0390625 5.2153125 -6.0390625 4.1953125 C-13.2990625 4.1953125 -20.5590625 4.1953125 -28.0390625 4.1953125 C-28.0390625 3.8653125 -28.0390625 3.5353125 -28.0390625 3.1953125 C-27.35279785 3.17549316 -26.6665332 3.15567383 -25.95947266 3.13525391 C-22.86060471 3.04020305 -19.76242956 2.93044403 -16.6640625 2.8203125 C-15.58382812 2.789375 -14.50359375 2.7584375 -13.390625 2.7265625 C-12.359375 2.68789062 -11.328125 2.64921875 -10.265625 2.609375 C-9.31252441 2.5779541 -8.35942383 2.5465332 -7.37744141 2.51416016 C-3.99097292 2.05240114 -3.62480401 0.23295656 0 0 Z " fill="#365350" transform="translate(116.0390625,7.8046875)"/>
<path d="M0 0 C1.30195313 0.00322266 2.60390625 0.00644531 3.9453125 0.00976562 C5.32552149 0.01812159 6.70572982 0.02658654 8.0859375 0.03515625 C9.47395676 0.04017124 10.86197772 0.04473415 12.25 0.04882812 C15.65368882 0.06064649 19.05729189 0.07712191 22.4609375 0.09765625 C22.9559375 1.08765625 22.9559375 1.08765625 23.4609375 2.09765625 C22.31753906 2.14664062 21.17414063 2.195625 19.99609375 2.24609375 C18.50518277 2.32110814 17.01429858 2.39665653 15.5234375 2.47265625 C14.39131836 2.5190625 14.39131836 2.5190625 13.23632812 2.56640625 C11.30586355 2.67028775 9.38151669 2.87661239 7.4609375 3.09765625 C7.1309375 3.75765625 6.8009375 4.41765625 6.4609375 5.09765625 C2.89888957 5.41650965 -0.64389134 5.47784746 -4.21875 5.55859375 C-7.61569379 5.76728524 -7.61569379 5.76728524 -9.484375 8.13671875 C-9.83242187 8.78382812 -10.18046875 9.4309375 -10.5390625 10.09765625 C-10.8690625 8.11765625 -11.1990625 6.13765625 -11.5390625 4.09765625 C-10.8790625 4.09765625 -10.2190625 4.09765625 -9.5390625 4.09765625 C-9.2090625 3.10765625 -8.8790625 2.11765625 -8.5390625 1.09765625 C-5.66887809 -0.33743596 -3.20362527 -0.01392881 0 0 Z " fill="#315351" transform="translate(195.5390625,10.90234375)"/>
<path d="M0 0 C3.02710492 -0.25946614 4.56524369 -0.29409986 7.125 1.4375 C10.93572341 3.50854533 14.28788253 3.40909098 18.57421875 3.49609375 C19.77498047 3.74552734 19.77498047 3.74552734 21 4 C22.33203125 6.03515625 22.33203125 6.03515625 23 8 C18.13574226 9.62141925 12.80570571 9.95779193 7.89453125 8.28125 C4.01934571 6.23211138 1.85771987 3.93399502 0 0 Z " fill="#274947" transform="translate(10,54)"/>
<path d="M0 0 C0.99 0.33 1.98 0.66 3 1 C3 1.66 3 2.32 3 3 C7.29 3 11.58 3 16 3 C16.33 2.34 16.66 1.68 17 1 C17 1.66 17 2.32 17 3 C24.92 3 32.84 3 41 3 C41 3.33 41 3.66 41 4 C34.07 4 27.14 4 20 4 C20 4.66 20 5.32 20 6 C23.96 6 27.92 6 32 6 C32 6.33 32 6.66 32 7 C17.21867882 7.18451025 17.21867882 7.18451025 11 6 C11 5.67 11 5.34 11 5 C4.91591528 4.80185739 4.91591528 4.80185739 -1 6 C-1 5.34 -1 4.68 -1 4 C-4.63 4 -8.26 4 -12 4 C-12 3.67 -12 3.34 -12 3 C-8.04 3 -4.08 3 0 3 C0 2.01 0 1.02 0 0 Z " fill="#0E3331" transform="translate(202,55)"/>
<path d="M0 0 C0.33 0 0.66 0 1 0 C1.04898437 1.09957031 1.09796875 2.19914062 1.1484375 3.33203125 C1.55842037 11.69549235 2.1758146 19.80002095 4 28 C1.58203125 27.31640625 1.58203125 27.31640625 -1 26 C-1.92578125 23.71484375 -1.92578125 23.71484375 -2.3125 20.9375 C-2.51939453 19.47183594 -2.51939453 19.47183594 -2.73046875 17.9765625 C-3.09521534 13.94849151 -3.13253065 10.04218476 -3 6 C-2.34 6.66 -1.68 7.32 -1 8 C-0.67 5.36 -0.34 2.72 0 0 Z " fill="#194341" transform="translate(10,27)"/>
<path d="M0 0 C7.92 0 15.84 0 24 0 C24.33 1.65 24.66 3.3 25 5 C23.5625 6.8125 23.5625 6.8125 22 8 C21.67 6.68 21.34 5.36 21 4 C14.4 3.67 7.8 3.34 1 3 C0.67 2.01 0.34 1.02 0 0 Z " fill="#103B39" transform="translate(221,12)"/>
<path d="M0 0 C0.66 0.66 1.32 1.32 2 2 C4.06874034 2.6425235 4.06874034 2.6425235 6 3 C5.01 3.33 4.02 3.66 3 4 C2.01 4.66 1.02 5.32 0 6 C-3.35546875 6.1953125 -3.35546875 6.1953125 -7.1875 6.125 C-8.45980469 6.10695313 -9.73210937 6.08890625 -11.04296875 6.0703125 C-12.50669922 6.03550781 -12.50669922 6.03550781 -14 6 C-14 4.68 -14 3.36 -14 2 C-9.38 2 -4.76 2 0 2 C0 1.34 0 0.68 0 0 Z " fill="#174443" transform="translate(161,56)"/>
<path d="M0 0 C0.33 0.99 0.66 1.98 1 3 C4.3 3.33 7.6 3.66 11 4 C11 4.33 11 4.66 11 5 C2.75 5 -5.5 5 -14 5 C-13.67 4.34 -13.34 3.68 -13 3 C-13.99 2.34 -14.98 1.68 -16 1 C-13.89594609 0.83191581 -11.79175242 0.66558052 -9.6875 0.5 C-8.51574219 0.4071875 -7.34398437 0.314375 -6.13671875 0.21875 C-4.094806 0.07635011 -2.0468721 0 0 0 Z " fill="#103A39" transform="translate(54,57)"/>
<path d="M0 0 C1.58323688 -0.027193 3.16661062 -0.04648306 4.75 -0.0625 C6.07257813 -0.07990234 6.07257813 -0.07990234 7.421875 -0.09765625 C9.7818838 -0.00826198 11.74498524 0.33087179 14 1 C14 1.99 14 2.98 14 4 C9.03926578 5.32286246 4.08888488 5.08893197 -1 5 C-0.67 3.35 -0.34 1.7 0 0 Z " fill="#244948" transform="translate(172,11)"/>
<path d="M0 0 C0.66 1.32 1.32 2.64 2 4 C1.34 4.66 0.68 5.32 0 6 C-1.24546405 3.50907189 -0.7767578 2.58919267 0 0 Z M-24 6 C-16.08 6 -8.16 6 0 6 C0.33 6.99 0.66 7.98 1 9 C-6.92 8.67 -14.84 8.34 -23 8 C-23.33 7.34 -23.66 6.68 -24 6 Z " fill="#1D4C49" transform="translate(110,53)"/>
<path d="M0 0 C0.66 0 1.32 0 2 0 C2.33 0.66 2.66 1.32 3 2 C9.6 2.33 16.2 2.66 23 3 C23 3.33 23 3.66 23 4 C16.73 4.33 10.46 4.66 4 5 C4 5.66 4 6.32 4 7 C3.34 7 2.68 7 2 7 C1.67 6.34 1.34 5.68 1 5 C0.01 5.33 -0.98 5.66 -2 6 C-2 5.34 -2 4.68 -2 4 C-5.96 4 -9.92 4 -14 4 C-14 3.67 -14 3.34 -14 3 C-9.71 3 -5.42 3 -1 3 C-0.67 2.01 -0.34 1.02 0 0 Z " fill="#495E59" transform="translate(219,12)"/>
<path d="M0 0 C2.97 0 5.94 0 9 0 C9.66 1.32 10.32 2.64 11 4 C7.98509443 5.00496852 5.95818308 5.10335303 2.8125 5.0625 C1.91144531 5.05347656 1.01039062 5.04445313 0.08203125 5.03515625 C-0.60503906 5.02355469 -1.29210937 5.01195312 -2 5 C-2.33 4.34 -2.66 3.68 -3 3 C-1.68 2.67 -0.36 2.34 1 2 C0.67 1.34 0.34 0.68 0 0 Z " fill="#335451" transform="translate(22,58)"/>
<path d="M0 0 C0.33 0 0.66 0 1 0 C1.08089542 2.77141717 1.14044062 5.54047819 1.1875 8.3125 C1.22520508 9.49102539 1.22520508 9.49102539 1.26367188 10.69335938 C1.27333984 11.45068359 1.28300781 12.20800781 1.29296875 12.98828125 C1.3086792 13.68477783 1.32438965 14.38127441 1.34057617 15.09887695 C0.90238443 17.54489783 -0.13437358 18.42702086 -2 20 C-3.20568053 15.32798795 -3.09382426 10.78503708 -3 6 C-2.34 6.66 -1.68 7.32 -1 8 C-0.67 5.36 -0.34 2.72 0 0 Z " fill="#0F3937" transform="translate(10,27)"/>
<path d="M0 0 C2.12493141 -0.02693575 4.24995912 -0.04636628 6.375 -0.0625 C7.55835938 -0.07410156 8.74171875 -0.08570313 9.9609375 -0.09765625 C13 0 13 0 15 1 C14.42415568 3.38564077 13.77772405 5.66682784 13 8 C12.34 7.67 11.68 7.34 11 7 C11.33 5.68 11.66 4.36 12 3 C8.04 3 4.08 3 0 3 C0 2.01 0 1.02 0 0 Z " fill="#0F3B3A" transform="translate(148,12)"/>
<path d="M0 0 C1.8125 2 1.8125 2 3 4 C0.69 4 -1.62 4 -4 4 C-4.33 4.66 -4.66 5.32 -5 6 C-5 5.34 -5 4.68 -5 4 C-5.66 4 -6.32 4 -7 4 C-7 5.65 -7 7.3 -7 9 C-7.33 9 -7.66 9 -8 9 C-8.36190476 3.57142857 -8.36190476 3.57142857 -6.8125 1.125 C-4.31963619 -0.42229478 -2.88032665 -0.50405716 0 0 Z " fill="#133C3A" transform="translate(30,19)"/>
<path d="M0 0 C0.66 0.33 1.32 0.66 2 1 C2 7.6 2 14.2 2 21 C-1.3 21 -4.6 21 -8 21 C-7.505 19.515 -7.505 19.515 -7 18 C-7 18.66 -7 19.32 -7 20 C-5.02 19.67 -3.04 19.34 -1 19 C-0.67 12.73 -0.34 6.46 0 0 Z " fill="#D8D5C4" transform="translate(63,37)"/>
<path d="M0 0 C0 0.66 0 1.32 0 2 C-2.3125 2.625 -2.3125 2.625 -5 3 C-5.99 2.34 -6.98 1.68 -8 1 C-9.9896995 0.60986284 -11.99019869 0.26797351 -14 0 C-14 -0.33 -14 -0.66 -14 -1 C-4.58997722 -2.51708428 -4.58997722 -2.51708428 0 0 Z " fill="#375653" transform="translate(188,59)"/>
<path d="M0 0 C0.99 1.32 1.98 2.64 3 4 C1.3125 5.5625 1.3125 5.5625 -1 7 C-3.75 6.6875 -3.75 6.6875 -6 6 C-6 5.34 -6 4.68 -6 4 C-4.68 4 -3.36 4 -2 4 C-1.34 2.68 -0.68 1.36 0 0 Z " fill="#284C49" transform="translate(30,45)"/>
<path d="M0 0 C0.66 0.66 1.32 1.32 2 2 C4.06874034 2.6425235 4.06874034 2.6425235 6 3 C3.65832183 3.78055939 1.4164124 4.51671752 -1 5 C-1.33 4.67 -1.66 4.34 -2 4 C-4.01594582 3.76572222 -6.038474 3.58663876 -8.0625 3.4375 C-9.16722656 3.35371094 -10.27195313 3.26992188 -11.41015625 3.18359375 C-12.26480469 3.12300781 -13.11945313 3.06242187 -14 3 C-14 2.67 -14 2.34 -14 2 C-9.38 2 -4.76 2 0 2 C0 1.34 0 0.68 0 0 Z " fill="#113533" transform="translate(161,56)"/>
<path d="M0 0 C0.33 0 0.66 0 1 0 C1.33 2.31 1.66 4.62 2 7 C2.66 7 3.32 7 4 7 C4 8.65 4 10.3 4 12 C2.35 11.67 0.7 11.34 -1 11 C-0.67 7.37 -0.34 3.74 0 0 Z " fill="#1A3F3C" transform="translate(186,47)"/>
<path d="M0 0 C0 0.66 0 1.32 0 2 C-6.52307692 1.38461538 -6.52307692 1.38461538 -8.9375 -0.5625 C-9.288125 -1.036875 -9.63875 -1.51125 -10 -2 C-5.93943859 -3.71792983 -3.64270496 -2.06971873 0 0 Z " fill="#214948" transform="translate(36,25)"/>
<path d="M0 0 C1.98 0 3.96 0 6 0 C6 0.99 6 1.98 6 3 C4.68 2.67 3.36 2.34 2 2 C1.67 5.3 1.34 8.6 1 12 C0.67 12 0.34 12 0 12 C0 8.04 0 4.08 0 0 Z " fill="#2E4843" transform="translate(99,39)"/>
<path d="M0 0 C4.62 0.66 9.24 1.32 14 2 C14 2.33 14 2.66 14 3 C12.23086176 3.22226864 10.45955629 3.42733873 8.6875 3.625 C7.70136719 3.74101563 6.71523438 3.85703125 5.69921875 3.9765625 C3 4 3 4 0 2 C0 1.34 0 0.68 0 0 Z " fill="#12413F" transform="translate(16,57)"/>
<path d="M0 0 C1.85776765 3.13498292 2.20140476 5.37471432 2 9 C1.443125 8.71125 0.88625 8.4225 0.3125 8.125 C-2.08494645 6.9586747 -4.51596939 5.9660119 -7 5 C-7 4.67 -7 4.34 -7 4 C-5.33388095 3.957279 -3.66617115 3.95936168 -2 4 C-1.67 4.33 -1.34 4.66 -1 5 C-0.67 3.35 -0.34 1.7 0 0 Z " fill="#D4D1BD" transform="translate(33,14)"/>
<path d="M0 0 C0.33 0 0.66 0 1 0 C1.05437607 1.58294782 1.09296271 3.16644256 1.125 4.75 C1.14820313 5.63171875 1.17140625 6.5134375 1.1953125 7.421875 C0.99139502 10.1135858 0.36551721 11.69904974 -1 14 C-1.99 13.34 -2.98 12.68 -4 12 C-4 11.34 -4 10.68 -4 10 C-3.01 9.67 -2.02 9.34 -1 9 C-0.67 6.03 -0.34 3.06 0 0 Z " fill="#123835" transform="translate(35,48)"/>
<path d="M0 0 C2.50357861 0.8345262 4.66785852 1.79371992 7 3 C4 5 4 5 1.3125 4.625 C0.549375 4.41875 -0.21375 4.2125 -1 4 C-0.67 2.68 -0.34 1.36 0 0 Z " fill="#244D4B" transform="translate(36,57)"/>
<path d="M0 0 C0.89674777 2.51089376 1.13172674 3.64535109 0.1875 6.1875 C-1 8 -1 8 -3 9 C-4.35439668 6.29120665 -4.06501451 3.99066732 -4 1 C-2 0 -2 0 0 0 Z " fill="#2C5350" transform="translate(25,23)"/>
<path d="M0 0 C1.35015859 4.05047576 0.62084998 6.7920168 0 11 C-0.99 10.34 -1.98 9.68 -3 9 C-2.4140625 2.84765625 -2.4140625 2.84765625 -2 1 C-1.34 0.67 -0.68 0.34 0 0 Z " fill="#264F4C" transform="translate(246,15)"/>
<path d="M0 0 C0.99 0.66 1.98 1.32 3 2 C2.01 2.99 1.02 3.98 0 5 C-0.66 4.67 -1.32 4.34 -2 4 C-3.70363822 3.77377919 -5.41328701 3.59111527 -7.125 3.4375 C-8.03507812 3.35371094 -8.94515625 3.26992187 -9.8828125 3.18359375 C-10.58148437 3.12300781 -11.28015625 3.06242188 -12 3 C-12 2.67 -12 2.34 -12 2 C-8.04 2 -4.08 2 0 2 C0 1.34 0 0.68 0 0 Z " fill="#193D3C" transform="translate(33,8)"/>
<path d="M0 0 C1.23556641 0.01740234 1.23556641 0.01740234 2.49609375 0.03515625 C3.32238281 0.04417969 4.14867187 0.05320313 5 0.0625 C5.63808594 0.07410156 6.27617187 0.08570313 6.93359375 0.09765625 C7.26359375 1.08765625 7.59359375 2.07765625 7.93359375 3.09765625 C6.47566491 3.15165361 5.01716663 3.19044802 3.55859375 3.22265625 C2.74648437 3.24585938 1.934375 3.2690625 1.09765625 3.29296875 C-1.06640625 3.09765625 -1.06640625 3.09765625 -3.06640625 1.09765625 C-2.06640625 0.09765625 -2.06640625 0.09765625 0 0 Z " fill="#325857" transform="translate(212.06640625,58.90234375)"/>
<path d="M0 0 C1.74627478 2.61941217 2.38722388 4.03824877 3 7 C1.02 7.99 1.02 7.99 -1 9 C-1.09765625 2.84765625 -1.09765625 2.84765625 -1 1 C-0.67 0.67 -0.34 0.34 0 0 Z " fill="#254C4A" transform="translate(126,37)"/>
<path d="M0 0 C0.66 0 1.32 0 2 0 C2 2.97 2 5.94 2 9 C1.34 9 0.68 9 0 9 C0 7.02 0 5.04 0 3 C-0.66 2.67 -1.32 2.34 -2 2 C-1.34 1.34 -0.68 0.68 0 0 Z " fill="#D3D0BC" transform="translate(33,48)"/>
<path d="M0 0 C0.33 0 0.66 0 1 0 C1 3.3 1 6.6 1 10 C0.01 9.67 -0.98 9.34 -2 9 C-2.25 3.375 -2.25 3.375 0 0 Z " fill="#2F514D" transform="translate(247,47)"/>
<path d="M0 0 C0.33 1.32 0.66 2.64 1 4 C1.66 4 2.32 4 3 4 C3.33 5.32 3.66 6.64 4 8 C2.35 8.33 0.7 8.66 -1 9 C-0.67 6.03 -0.34 3.06 0 0 Z " fill="#355451" transform="translate(177,43)"/>
<path d="M0 0 C0.33 0 0.66 0 1 0 C1 2.97 1 5.94 1 9 C0.01 9.495 0.01 9.495 -1 10 C-2.25 3.375 -2.25 3.375 0 0 Z " fill="#1D4C49" transform="translate(9,26)"/>
<path d="M0 0 C1.08667969 0.29197266 1.08667969 0.29197266 2.1953125 0.58984375 C2.74960938 0.74582031 3.30390625 0.90179688 3.875 1.0625 C3.875 1.3925 3.875 1.7225 3.875 2.0625 C0.575 2.0625 -2.725 2.0625 -6.125 2.0625 C-6.125 1.4025 -6.125 0.7425 -6.125 0.0625 C-3.57797384 -1.21101308 -2.6967055 -0.73941925 0 0 Z " fill="#214543" transform="translate(240.125,59.9375)"/>
<path d="M0 0 C2.31 0 4.62 0 7 0 C7.33 0.99 7.66 1.98 8 3 C6.02 3 4.04 3 2 3 C2 2.34 2 1.68 2 1 C1.34 0.67 0.68 0.34 0 0 Z " fill="#124040" transform="translate(203,59)"/>
<path d="M0 0 C-0.598125 0.268125 -1.19625 0.53625 -1.8125 0.8125 C-3.97224808 1.98493467 -5.35790256 3.19369282 -7 5 C-7.99 4.67 -8.98 4.34 -10 4 C-6.58908673 0.88145073 -4.68377325 -0.53528837 0 0 Z " fill="#F1E6CA" transform="translate(25,12)"/>
</svg>
